<?xml version="1.0" encoding="UTF-8" standalone="no"?>
<!-- Created with Inkscape (http://www.inkscape.org/) -->

<svg

   xmlns:dc="http://purl.org/dc/elements/1.1/"
   xmlns:cc="http://creativecommons.org/ns#"
   xmlns:rdf="http://www.w3.org/1999/02/22-rdf-syntax-ns#"
   xmlns:svg="http://www.w3.org/2000/svg"
   xmlns="http://www.w3.org/2000/svg"
   xmlns:xlink="http://www.w3.org/1999/xlink"
   xmlns:sodipodi="http://sodipodi.sourceforge.net/DTD/sodipodi-0.dtd"
   xmlns:inkscape="http://www.inkscape.org/namespaces/inkscape"
   version="1.1"
   width="390.65625"
   height="390.625"
   id="svg2"
   inkscape:version="0.48.1 "
   sodipodi:docname="AJAX.svg">
  <metadata
     id="metadata139">
    <rdf:RDF>
      <cc:Work
         rdf:about="">
        <dc:format>image/svg+xml</dc:format>
        <dc:type
           rdf:resource="http://purl.org/dc/dcmitype/StillImage" />
      </cc:Work>
    </rdf:RDF>
  </metadata>
  <sodipodi:namedview
     pagecolor="#ffffff"
     bordercolor="#666666"
     borderopacity="1"
     objecttolerance="10"
     gridtolerance="10"
     guidetolerance="10"
     inkscape:pageopacity="0"
     inkscape:pageshadow="2"
     inkscape:window-width="1280"
     inkscape:window-height="1004"
     id="namedview137"
     showgrid="false"
     inkscape:zoom="1.3741457"
     inkscape:cx="210.25223"
     inkscape:cy="159.68278"
     inkscape:window-x="-8"
     inkscape:window-y="-8"
     inkscape:window-maximized="1"
     inkscape:current-layer="layer1"
     fit-margin-top="0"
     fit-margin-left="0"
     fit-margin-right="0"
     fit-margin-bottom="0"
     showguides="true"
     inkscape:guide-bbox="true" />
  <defs
     id="defs4">
    <inkscape:perspective
       sodipodi:type="inkscape:persp3d"
       inkscape:vp_x="0 : 195.16251 : 1"
       inkscape:vp_y="0 : 1000 : 0"
       inkscape:vp_z="390.35626 : 195.16251 : 1"
       inkscape:persp3d-origin="195.17813 : 130.10834 : 1"
       id="perspective141" />
    <linearGradient
       id="linearGradient4375">
      <stop
         id="stop4377"
         style="stop-color:#4d6b3d;stop-opacity:1"
         offset="0" />
      <stop
         id="stop4379"
         style="stop-color:#7aa564;stop-opacity:1"
         offset="1" />
    </linearGradient>
    <linearGradient
       id="linearGradient4367">
      <stop
         id="stop4369"
         style="stop-color:#403215;stop-opacity:1"
         offset="0" />
      <stop
         id="stop4371"
         style="stop-color:#403215;stop-opacity:0"
         offset="1" />
    </linearGradient>
    <linearGradient
       id="linearGradient4280">
      <stop
         id="stop4282"
         style="stop-color:#e5bb28;stop-opacity:1;"
         offset="0" />
      <stop
         id="stop4284"
         style="stop-color:#fff1c1;stop-opacity:1;"
         offset="1" />
    </linearGradient>
    <linearGradient
       id="linearGradient4268">
      <stop
         id="stop4270"
         style="stop-color:#e5bf28;stop-opacity:1;"
         offset="0" />
      <stop
         id="stop4272"
         style="stop-color:#fff3c1;stop-opacity:1;"
         offset="1" />
    </linearGradient>
    <linearGradient
       id="linearGradient4245">
      <stop
         id="stop4247"
         style="stop-color:#ffdf60;stop-opacity:1;"
         offset="0" />
      <stop
         id="stop4249"
         style="stop-color:#ceb243;stop-opacity:1;"
         offset="1" />
    </linearGradient>
    <linearGradient
       id="linearGradient4235">
      <stop
         id="stop4237"
         style="stop-color:#584511;stop-opacity:0.51764709;"
         offset="0" />
      <stop
         id="stop4239"
         style="stop-color:#d3bb5b;stop-opacity:0.57647061;"
         offset="0.43766627" />
      <stop
         id="stop4241"
         style="stop-color:#795f1a;stop-opacity:0.10196079;"
         offset="1" />
    </linearGradient>
    <linearGradient
       id="linearGradient4183">
      <stop
         id="stop4193"
         style="stop-color:#5c4d12;stop-opacity:1;"
         offset="0" />
      <stop
         id="stop4191"
         style="stop-color:#d6bd65;stop-opacity:1;"
         offset="0.43766627" />
      <stop
         id="stop4187"
         style="stop-color:#79641a;stop-opacity:1;"
         offset="1" />
    </linearGradient>
    <linearGradient
       id="linearGradient3989">
      <stop
         id="stop3991"
         style="stop-color:#fff72a;stop-opacity:1"
         offset="0" />
      <stop
         id="stop3993"
         style="stop-color:#ffb380;stop-opacity:1"
         offset="1" />
    </linearGradient>
    <linearGradient
       id="linearGradient2864">
      <stop
         id="stop2866"
         style="stop-color:#2d7b9f;stop-opacity:1;"
         offset="0" />
      <stop
         id="stop3654"
         style="stop-color:#dae2ef;stop-opacity:1"
         offset="0.10802121" />
      <stop
         id="stop3652"
         style="stop-color:#4383a1;stop-opacity:1;"
         offset="0.1898455" />
      <stop
         id="stop3648"
         style="stop-color:#bccfec;stop-opacity:1"
         offset="0.39069837" />
      <stop
         id="stop3650"
         style="stop-color:#3590ba;stop-opacity:1;"
         offset="0.50258791" />
      <stop
         id="stop3646"
         style="stop-color:#99b6e2;stop-opacity:1"
         offset="0.66845262" />
      <stop
         id="stop3644"
         style="stop-color:#3388af;stop-opacity:1;"
         offset="0.88007283" />
      <stop
         id="stop2868"
         style="stop-color:#5eaed3;stop-opacity:1;"
         offset="1" />
    </linearGradient>
    <linearGradient
       x1="55.234997"
       y1="113.94793"
       x2="60.592869"
       y2="143.80627"
       id="linearGradient3670"
       xlink:href="#linearGradient2864"
       gradientUnits="userSpaceOnUse" />
    <radialGradient
       cx="435.21289"
       cy="443.173"
       r="80.506104"
       fx="435.21289"
       fy="443.173"
       id="radialGradient3997"
       xlink:href="#linearGradient3989"
       gradientUnits="userSpaceOnUse"
       gradientTransform="matrix(1,-1.0785102e-8,0,0.71982475,-3.4372233e-6,97.509644)" />
    <linearGradient
       x1="691.14081"
       y1="244.94687"
       x2="683.24097"
       y2="244.911"
       id="linearGradient4189"
       xlink:href="#linearGradient4183"
       gradientUnits="userSpaceOnUse"
       spreadMethod="reflect" />
    <radialGradient
       cx="666.84656"
       cy="240.53767"
       r="41.598671"
       fx="666.84656"
       fy="240.53767"
       id="radialGradient4243"
       xlink:href="#linearGradient4235"
       gradientUnits="userSpaceOnUse"
       gradientTransform="matrix(0.07085542,0.41252416,-0.12128288,0.02083162,648.76996,-40.770295)"
       spreadMethod="reflect" />
    <linearGradient
       x1="155.19191"
       y1="185.82976"
       x2="151.34361"
       y2="185.80806"
       id="linearGradient4251"
       xlink:href="#linearGradient4245"
       gradientUnits="userSpaceOnUse"
       spreadMethod="repeat" />
    <radialGradient
       cx="201.57811"
       cy="70.2892"
       r="157.23438"
       fx="201.57811"
       fy="70.2892"
       id="radialGradient4262"
       xlink:href="#linearGradient4245"
       gradientUnits="userSpaceOnUse"
       gradientTransform="matrix(0.82926671,1.3890941e-7,-1.3456368e-8,0.08033235,34.416108,194.36939)"
       spreadMethod="repeat" />
    <radialGradient
       cx="-37.022015"
       cy="2187.2324"
       r="157.23396"
       fx="-37.022015"
       fy="2187.2324"
       id="radialGradient4266"
       xlink:href="#linearGradient4245"
       gradientUnits="userSpaceOnUse"
       gradientTransform="matrix(-0.4953685,0.11926341,-0.01011015,-0.04199316,53.137867,221.00339)"
       spreadMethod="repeat" />
    <linearGradient
       x1="234.00975"
       y1="214.6877"
       x2="231.4182"
       y2="224.16249"
       id="linearGradient4274"
       xlink:href="#linearGradient4268"
       gradientUnits="userSpaceOnUse"
       spreadMethod="reflect" />
    <radialGradient
       cx="186.16127"
       cy="281.49002"
       r="146.60246"
       fx="186.16127"
       fy="281.49002"
       id="radialGradient4286"
       xlink:href="#linearGradient4280"
       gradientUnits="userSpaceOnUse"
       gradientTransform="matrix(0.43427719,-0.02817145,0.00257678,0.03972236,105.55638,211.49337)"
       spreadMethod="reflect" />
    <linearGradient
       x1="238.51883"
       y1="78.324554"
       x2="240.29346"
       y2="94.864029"
       id="linearGradient4373"
       xlink:href="#linearGradient4367"
       gradientUnits="userSpaceOnUse"
       gradientTransform="translate(264.48914,347.87304)" />
    <linearGradient
       x1="238.51883"
       y1="78.324554"
       x2="240.29346"
       y2="94.864029"
       id="linearGradient4381"
       xlink:href="#linearGradient4375"
       gradientUnits="userSpaceOnUse"
       gradientTransform="translate(264.48914,347.87304)"
       spreadMethod="reflect" />
    <linearGradient
       x1="19.389307"
       y1="88.762138"
       x2="17.460882"
       y2="68.655792"
       id="linearGradient4403"
       xlink:href="#linearGradient4375"
       gradientUnits="userSpaceOnUse" />
    <inkscape:perspective
       id="perspective3015"
       inkscape:persp3d-origin="0.5 : 0.33333333 : 1"
       inkscape:vp_z="1 : 0.5 : 1"
       inkscape:vp_y="0 : 1000 : 0"
       inkscape:vp_x="0 : 0.5 : 1"
       sodipodi:type="inkscape:persp3d" />
    <radialGradient
       inkscape:collect="always"
       xlink:href="#linearGradient4183"
       id="radialGradient3801"
       cx="-174.48303"
       cy="145.61794"
       fx="-174.48303"
       fy="145.61794"
       r="41.67812"
       gradientTransform="matrix(1,0,0,0.70023007,0,43.65188)"
       gradientUnits="userSpaceOnUse" />
  </defs>
  <g
     transform="translate(-238.43304,-260.58539)"
     id="layer1">
    <g
       id="sky">
      <path
         d="m 354.70679,417.97574 c 0,0 10.79116,-57.24525 75.6895,-59.63415 74.77205,-2.75234 85.3227,65.36821 85.3227,65.36821 -51.86581,12.88906 -106.11172,6.26124 -161.0122,-5.73406 z"
         id="path2831"
         style="fill:#fff974;fill-opacity:1;stroke:none"
         inkscape:connector-curvature="0" />
      <path
         d="m 366.40426,411.78297 -28.89963,-3.44044 c 0,0 18.56659,-69.39459 93.80911,-69.03799 96.79081,0.45872 99.31379,78.21248 99.31379,78.21248 l -27.98218,0 c 0,0 -5.93484,-53.73086 -66.28565,-54.58818 -49.77131,-0.70703 -69.72608,49.54221 -69.95544,48.85413 z"
         id="path2829"
         style="fill:#f8c300;fill-opacity:1;stroke:none"
         inkscape:connector-curvature="0" />
      <path
         d="m 340.94506,412.47105 -20.64259,-2.52298 c 0,0 29.58772,-91.05676 113.76361,-88.30441 84.1759,2.75234 117.20404,48.3954 120.41511,100.91933 l -29.12899,-2.75235 c 0,0 -10.04788,-75.4221 -88.9925,-74.71499 -76.14517,0.68203 -97.4789,67.60477 -95.41464,67.3754 z"
         id="path2827"
         style="fill:#75c5f0;fill-opacity:1;stroke:none"
         inkscape:connector-curvature="0" />
      <path
         d="m 321.67865,417.74638 -25.22984,-11.92683 c 0,0 29.33005,-97.76821 138.99344,-98.16698 126.14916,-0.45873 152.06709,120.18575 152.06709,120.18575 l -35.78049,-0.45873 c 0,0 -16.58776,-102.26266 -115.59851,-101.60742 -74.77606,0.49135 -106.42402,58.94607 -114.45169,91.97421 z"
         id="path2825"
         style="fill:#007cc3;fill-opacity:1;stroke:none"
         inkscape:connector-curvature="0" />
      <path
         d="m 174.8125,-32.9375 -2.09375,96.46875 c -0.18859,0 -0.37619,-0.0054 -0.5625,0 L 152.4375,-32.25 l -7.84375,1.875 25.65625,92.21875 -45.71875,-88.53125 -8.0625,4.125 52.46875,86.5 c -0.0422,0.0089 -0.083,0.02203 -0.125,0.03125 l -71.5,-76.84375 -7.59375,3.9375 77.84375,73.21875 c -0.13712,0.04188 -0.27248,0.07992 -0.40625,0.125 L 77.71875,0.75 70.5625,6.96875 l 96.09375,57.625 c -1.73381,0.659683 -3.1565,1.582694 -4.0625,2.6875 l -99.875,-51.5625 -5.53125,8.09375 104.5,45.09375 c -0.13683,0.414794 -0.21875,0.842753 -0.21875,1.28125 0,3.673523 5.04301,6.65625 11.25,6.65625 6.20699,0 11.21875,-2.982727 11.21875,-6.65625 0,-0.821996 -0.25808,-1.616977 -0.71875,-2.34375 L 292.1875,35.5625 285.75,28.1875 181.125,65.78125 c -1.03085,-0.691738 -2.28605,-1.234284 -3.71875,-1.625 l 100.71875,-45.875 -4.84375,-6 -88.46875,46 L 261.75,0.75 l -7.15625,-4.84375 -76.78125,66 -0.96875,0.53125 60.6875,-78.3125 -8.28125,-3.21875 -51.65625,77.125 33.4375,-83.8125 -8.3125,-2.3125 -27.9375,88.375 -0.21875,2.3125 -0.65625,0.96875 c -0.0522,-0.0033 -0.10382,0.0029 -0.15625,0 l 1.03125,-3.28125 9.25,-92.53125 -9.21875,-0.6875 z M 48.65625,35.09375 43.8125,43.875 l 66.875,17.75 6,-3.21875 -68.03125,-23.3125 z M 298.1875,48.25 193.9375,68.3125 197.65625,70.625 302.34375,57 298.1875,48.25 z"
         transform="translate(265.71429,346.64789)"
         id="path3796"
         style="fill:#ffffff;stroke:none"
         inkscape:connector-curvature="0" />
      <path
         d="m 422.82734,426.23278 c 0,0 1.37617,-17.43152 13.76172,-17.43152 12.38556,0 14.44982,5.04597 19.03706,18.57833 l -32.79878,-1.14681 z"
         id="path2833"
         style="fill:#e4ad06;fill-opacity:1;stroke:none"
         inkscape:connector-curvature="0" />
    </g>
    <g
       id="water"
       style="fill:none">
      <path
         d="m 11.468106,116.28283 144.956854,-1.8349 -50.2303,17.89025 -86.928242,21.56004 -7.798312,-37.61539 z"
         transform="translate(265.71429,346.64789)"
         id="path2859"
         style="fill:url(#linearGradient3670);fill-opacity:1;stroke:#000000;stroke-width:1px;stroke-linecap:butt;stroke-linejoin:miter;stroke-opacity:1"
         inkscape:connector-curvature="0" />
    </g>
    <g
       id="mountains">
      <path
         d="m 136.2411,67.199336 c 0,0 -15.82599,-5.045967 -16.9728,-7.110226 -1.14681,-2.064259 -4.58724,-5.50469 -6.88086,-6.422139 -2.29363,-0.917448 -10.55066,-0.229362 -13.073645,0.688087 -2.522983,0.917448 -9.403846,5.275328 -13.07364,5.50469 -3.669794,0.229362 -13.532365,1.605535 -13.532365,1.605535 l 27.98218,24.541746 35.55113,-18.807693 z"
         transform="translate(265.71429,346.64789)"
         id="path2850"
         style="fill:#00784b;fill-opacity:1;stroke:#294015;stroke-width:0.30000001;stroke-linecap:butt;stroke-linejoin:miter;stroke-miterlimit:4;stroke-opacity:1;stroke-dasharray:none"
         inkscape:connector-curvature="0" />
      <path
         d="m 350.95914,406.57892 c 0,0 9.65748,-0.65847 13.60827,-1.31693 3.95078,-0.65847 11.19389,-2.41437 10.75492,-1.09744 -0.43898,1.31692 -4.17028,1.97539 -4.82874,3.73129 -0.65847,1.75591 -2.63386,0.65847 -8.77953,1.53642 -6.14567,0.87795 -8.77952,2.41437 -5.92618,2.63386 2.85335,0.21949 2.85335,-0.87795 5.26772,-0.87795 2.41437,0 5.26771,-1.75591 8.12106,-1.53642 2.85334,0.21949 4.60925,-2.63386 7.68208,-2.85335 3.07284,-0.21948 3.51181,0.87796 1.09744,2.19488 -2.41437,1.31693 -1.53641,0.43898 2.41437,0.87796 3.95079,0.43897 3.95079,1.09744 9.65748,1.7559 5.70669,0.65847 3.29232,0 6.58464,1.53642 3.29233,1.53642 -10.53543,4.60925 -10.53543,4.60925 0,0 -5.26771,-2.85335 -7.90157,-3.07283 -2.63386,-0.21949 -8.34055,-1.9754 -3.95078,0.21948 4.38976,2.19489 10.75491,3.7313 10.75491,3.7313 l -18.87598,7.02362 -15.14468,-19.09546 z"
         id="path2873"
         style="fill:#1b392d;fill-opacity:1;stroke:none"
         inkscape:connector-curvature="0" />
      <path
         d="m 176.37947,78.667442 c 0,0 -7.33959,-2.752346 -15.36727,-7.798312 -8.02767,-5.045967 -12.61491,-8.027674 -17.43152,-7.56895 -4.8166,0.458724 -9.86257,2.293621 -12.38555,2.293621 -2.52298,0 -16.05535,5.045967 -19.26642,5.504691 -3.21107,0.458724 -21.101313,7.110225 -21.101313,7.110225 L 124.0849,110.09005 176.37947,78.667442 z"
         transform="translate(265.71429,346.64789)"
         id="path2848"
         style="fill:#00784b;fill-opacity:1;stroke:#294015;stroke-width:0.5;stroke-linecap:butt;stroke-linejoin:miter;stroke-miterlimit:4;stroke-opacity:1;stroke-dasharray:none"
         inkscape:connector-curvature="0" />
      <path
         d="m 399.1228,416.98291 c -0.99456,0.0214 -1.89568,0.53285 -2.71875,1.21875 -1.31693,1.09744 1.09302,1.75148 1.3125,1.3125 2.63386,-0.65846 5.03715,-0.87131 3.28125,-1.96875 -0.65847,-0.41154 -1.27827,-0.57536 -1.875,-0.5625 z m -14.875,4.875 c -0.21177,0.002 -0.48327,0.0389 -0.8125,0.0937 -2.63386,0.43898 -6.56176,3.06324 -6.78125,2.84375 3.51181,0 9.62795,2.41363 8.75,0.21875 -0.76821,-1.92052 0.32615,-3.16825 -1.15625,-3.15625 z m 43.0625,0.78125 c -0.55815,0.003 -1.06029,0.21346 -1.71875,0.625 -1.75591,1.09744 -3.09375,3.0625 -3.09375,3.0625 l 1.5625,-0.21875 c 2.63386,-0.87795 0.86466,-1.31545 3.9375,-0.4375 3.07283,0.87795 5.9375,3.0625 5.9375,3.0625 l 5.90625,-2.1875 c 0,0 -4.83194,-0.86983 -8.34375,-2.40625 -2.19488,-0.96026 -3.25725,-1.50429 -4.1875,-1.5 z m -29.40625,0.1875 c -1.53899,0.015 -4.04134,0.68221 -5.6875,1.09375 -2.63386,0.65846 -17.34375,9.21875 -17.34375,9.21875 l 1.78125,3.28125 c 0,0 1.47641,-0.62648 3.3125,-1.40625 l 4.78125,5.8125 4.40625,-3.96875 c 0,0 -1.53494,-1.9658 -0.4375,-2.84375 1.09744,-0.87795 7.22466,-0.22318 5.46875,1.09375 -1.7559,1.31693 -1.75812,1.75 0.65625,1.75 2.41437,0 2.86909,-1.08785 4.625,-2.84375 1.7559,-1.75591 6.375,-0.21506 6.375,-1.3125 0,-1.09744 -3.72711,-0.43529 -10.53125,-1.09375 -3.04006,-0.2942 -4.83045,-0.83464 -5.90625,-1.3125 0.32792,-0.23465 0.63461,-0.44711 0.84375,-0.65625 2.41437,-2.41437 8.56102,-4.1816 9,-5.9375 0.16462,-0.65846 -0.42036,-0.884 -1.34375,-0.875 z m 11.65625,0.875 c -3.07283,0 -7.03273,-0.008 -6.59375,2.40625 2.85334,1.53642 2.64813,0.44045 5.0625,-0.4375 2.41437,-0.87795 4.60409,-1.96875 1.53125,-1.96875 z m 9.25,11.0625 c -1.22433,0.0206 -2.27141,0.12426 -2.875,0.34375 -2.41437,0.87795 -9.21506,-0.002 -10.3125,0.4375 -0.9286,0.37144 -1.41256,1.36531 -1.53125,1.53125 2.82972,0.44707 3.93863,2.21859 7,1.78125 3.07283,-0.43898 12.09375,-1.125 12.09375,-1.125 l 4.59375,-2.40625 c 0,0 -5.29575,-0.62423 -8.96875,-0.5625 z m -19.875,3.40625 c -2.9057,0.38582 -10.21875,6.375 -10.21875,6.375 0,0.21949 4.81029,2.19488 5.46875,0 0.65847,-2.19488 11.22244,-5.46949 10.125,-5.25 -1.09744,0.21949 -2.42938,-0.68602 -4.84375,-1.125 -0.1509,-0.0274 -0.33754,-0.0257 -0.53125,0 z"
         id="path2875"
         style="opacity:0.98170734;fill:#1b392d;fill-opacity:1;stroke:none"
         inkscape:connector-curvature="0" />
      <path
         d="m 166.97562,115.59474 c 0,0 -19.03706,2.06426 -25.91792,1.37617 -6.88086,-0.68808 -17.20216,-7.56895 -17.20216,-7.56895 l -0.22936,-5.96341 c 0,0 5.96341,-0.91745 11.92683,-4.128518 5.96341,-3.21107 11.46811,-8.027674 19.26642,-11.468106 7.79831,-3.440431 25.91792,-14.449813 29.35835,-16.743434 3.44043,-2.293621 9.17448,-7.110226 13.07364,-7.339588 3.89915,-0.229362 4.12852,2.064259 7.79831,1.376173 3.66979,-0.688086 6.6515,-0.688086 10.3213,-0.688086 3.66979,0 6.88086,-1.834897 9.17448,0.229362 2.29362,2.064259 12.15619,4.587242 12.15619,4.587242 l -69.72608,46.331145 z"
         transform="translate(265.71429,346.64789)"
         id="path2846"
         style="fill:#00784b;fill-opacity:1;stroke:#000000;stroke-width:0.30000001;stroke-linecap:butt;stroke-linejoin:miter;stroke-miterlimit:4;stroke-opacity:1;stroke-dasharray:none"
         inkscape:connector-curvature="0" />
      <path
         d="m 29.358351,52.749523 c 0,0 31.651971,-4.128518 36.239214,-2.752346 4.587242,1.376173 14.220451,5.504691 22.477487,12.844279 8.257036,7.339587 20.183868,20.64259 23.624298,25.00047 3.44043,4.35788 13.99109,8.715761 19.03706,13.761724 5.04596,5.04597 10.55065,13.07364 13.99108,13.53237 3.44044,0.45872 0.91745,2.75234 -2.75234,2.29362 -3.6698,-0.45873 -15.82599,0.68809 -19.49578,-0.45873 -3.66979,-1.14681 -8.94512,0.22937 -11.69747,0.22937 -2.75234,0 -36.468575,1.14681 -40.597093,0.91745 -4.128518,-0.22937 -20.413228,3.44043 -23.394936,2.75234 -2.981707,-0.68809 -8.257036,0.68809 -14.220451,-0.45872 -5.963415,-1.14681 -14.908537,-1.37618 -14.908537,-1.37618 L 29.358351,52.749523 z"
         transform="translate(265.71429,346.64789)"
         id="path2842"
         style="fill:#00784b;fill-opacity:1;stroke:#314a1d;stroke-width:0.40000001;stroke-linecap:butt;stroke-linejoin:miter;stroke-miterlimit:4;stroke-opacity:1;stroke-dasharray:none"
         inkscape:connector-curvature="0" />
      <path
         d="m 314.6347,402.47117 c -1.03037,0 -1.875,0.32573 -1.875,0.75 0,0.42427 0.84463,0.78125 1.875,0.78125 1.03037,0 1.875,-0.35698 1.875,-0.78125 0,-0.42427 -0.84463,-0.75 -1.875,-0.75 z m -9.5625,1.53125 c -1.09098,0 -1.96875,0.42326 -1.96875,0.96875 0,0.54549 0.87777,1 1.96875,1 1.09098,0 2,-0.45451 2,-1 0,-0.54549 -0.90902,-0.96875 -2,-0.96875 z m 17.125,0.875 c -1.2122,0 -2.1875,0.31905 -2.1875,1.53125 0,1.2122 0.9753,2.1875 2.1875,2.1875 1.2122,0 2.1875,-0.9753 2.1875,-2.1875 0,-1.2122 -0.9753,-1.53125 -2.1875,-1.53125 z m -7.21875,4.3125 c -3.93053,0.14468 -18.03125,7.09375 -18.03125,7.09375 l -5.6875,36.65625 c 0,0 7.68529,-1.52239 8.34375,-4.15625 0.65846,-2.63386 1.74262,-2.21063 3.9375,-4.625 2.19488,-2.41437 1.77535,-0.007 3.53125,1.96875 1.7559,1.97539 0.41363,2.65035 -1.78125,4.40625 -2.19488,1.75591 -5.03051,2.83711 -5.25,4.8125 -0.21949,1.9754 3.0625,1.34006 3.0625,2.4375 0,1.09744 -4.83785,2.40182 -6.59375,3.71875 -1.7559,1.31693 2.6533,0.65625 3.53125,0.65625 0.87795,0 -5.0625,5.71875 -5.0625,5.71875 l 23.0625,-1.5625 c 0,0 3.0566,-1.7441 4.8125,-3.5 1.7559,-1.75591 0.007,-0.21137 -1.96875,-2.40625 -1.97539,-2.19488 0.65182,-1.99262 1.96875,-4.1875 1.31693,-2.19489 7.2441,-4.80954 9,-5.6875 1.7559,-0.87795 7.68086,-3.09227 9.65625,-3.53125 1.97539,-0.43897 2.43381,-1.08711 3.53125,-3.0625 1.09744,-1.97539 -1.77461,-0.43898 -3.75,0 -1.97539,0.43898 -2.61983,-0.43676 -4.15625,-0.65625 -1.53642,-0.21949 -7.90035,2.18603 -9.65625,2.625 -1.7559,0.43898 1.7441,0.65404 3.5,1.3125 1.7559,0.65847 -1.30881,3.96728 -2.40625,4.40625 -1.09744,0.43898 -3.95694,1.09449 -7.46875,0.875 -3.51181,-0.21949 -3.30364,-2.18233 -5.9375,-3.71875 -2.63386,-1.53642 0.0224,-2.66142 2.65625,-1.125 2.63386,1.53642 6.14739,-1.09006 8.78125,-2.1875 2.63386,-1.09744 -1.33046,-4.15182 -5.28125,-5.46875 -3.95079,-1.31693 -2.6309,-3.09227 -0.875,-3.53125 1.7559,-0.43898 -0.88681,-3.93898 2.625,-3.5 3.51181,0.43898 6.16068,-0.20989 4.84375,-2.84375 -1.31693,-2.63386 1.74188,-0.9033 4.15625,-1.78125 2.41437,-0.87795 0.66757,2.65403 6.59375,3.3125 5.92618,0.65846 8.32825,5.90256 12.9375,7 4.60925,1.09744 2.20915,-1.74262 5.0625,-3.9375 0.45921,-0.35324 0.82078,-0.52895 1.125,-0.625 -0.014,-0.0101 -0.017,-0.0211 -0.0312,-0.0312 -3.07283,-2.19488 -7.90477,2.85408 -8.34375,-0.21875 -0.43898,-3.07283 -5.05586,-2.86393 -7.03125,-6.15625 -1.97539,-3.29232 2.8691,-0.43824 4.625,-0.21875 1.7559,0.21949 5.48745,-1.31693 9.21875,0 3.7313,1.31693 3.29601,0.007 -1.09375,-2.1875 -4.38976,-2.19488 -7.02313,0.88164 -9.4375,-1.09375 -2.41437,-1.97539 -3.3066,-1.0967 -5.0625,-0.21875 -1.7559,0.87795 -5.26944,0.43898 -8.78125,0 -3.51181,-0.43898 -14.93012,5.25295 -17.125,4.375 -2.19488,-0.87795 0.65625,-2.40625 0.65625,-2.40625 0,0 4.83563,-0.64961 7.25,-2.625 2.41437,-1.97539 5.93086,-0.87426 7.90625,-1.09375 1.97539,-0.21949 0.0125,-1.09301 -3.71875,-1.3125 -3.7313,-0.21949 -5.49336,2.84153 -7.46875,3.5 -1.97539,0.65846 -4.19045,-0.43307 -3.3125,-1.75 0.87795,-1.31693 4.17421,-3.52977 8.125,-3.96875 3.95079,-0.43898 3.52165,-2.84449 6.375,-2.625 2.85334,0.21949 3.05881,-2.19267 4.15625,-0.65625 1.09744,1.53642 5.28568,2.40846 3.96875,1.75 -1.31693,-0.65846 -2.21211,-5.0283 -4.1875,-5.90625 -1.97539,-0.87795 -4.80586,3.28494 -6.78125,2.1875 -1.97539,-1.09744 -7.46137,0.66068 -9.65625,-0.65625 -2.19488,-1.31693 0.19636,-2.6533 -2.4375,-3.53125 -0.16462,-0.0549 -0.36296,-0.0721 -0.625,-0.0625 l -5e-5,-5e-5 z m 42.8125,24.90625 c 0.62032,0.44504 1.00702,0.76517 1.28125,1.03125 -0.0744,-0.64821 -0.35991,-1.32214 -1.28125,-1.03125 z m 1.28125,1.03125 c 0.0537,0.46767 0,0.90625 0,0.90625 0,0 1.05828,0.12057 0,-0.90625 z m -19.53125,3.53125 c -1.2122,0 -2.1875,0.55204 -2.1875,1.21875 0,0.66671 0.9753,1.21875 2.1875,1.21875 1.2122,0 2.1875,-0.55204 2.1875,-1.21875 0,-0.66671 -0.9753,-1.21875 -2.1875,-1.21875 z m 21.6875,5.03125 c -3.92732,0.33116 -13.70528,7.37211 -15.96875,8.8125 -2.41437,1.53641 -2.00221,1.52534 -1.34375,3.28125 0.65846,1.7559 -2.39887,1.12279 -4.59375,1.78125 -2.19488,0.65847 -3.06914,1.31102 -1.09375,1.75 1.97539,0.43898 -3.53125,2.1875 -3.53125,2.1875 0,0 -1.95842,-2.4092 -5.03125,-1.53125 -3.07283,0.87796 -5.71875,4.375 -5.71875,4.375 l 0,3.3125 69.15625,-3.53125 c 0,0 -5.48598,-1.9658 -9.65625,-2.84375 -4.17028,-0.87795 -6.14001,-0.22171 -10.96875,0.65625 -4.82874,0.87795 -7.26944,-0.65182 -10.78125,-1.96875 -3.51181,-1.31693 -5.70473,-1.52903 -9.875,-2.1875 -4.17027,-0.65846 -2.19119,-0.46358 -1.09375,-2 1.09744,-1.53642 5.0529,-3.28051 7.90625,-3.5 2.85334,-0.21949 10.31102,-0.65256 10.75,-1.75 0.43898,-1.09744 -7.25074,-1.11836 -7.03125,-3.09375 0.21949,-1.97539 9.02608,0.87869 10.5625,-0.21875 1.53642,-1.09744 -7.70768,-2.84154 -11,-3.5 -0.20577,-0.0412 -0.42568,-0.0533 -0.6875,-0.0312 l 0,-5e-5 z"
         id="path2851"
         style="fill:#1b392d;fill-opacity:1;stroke:none"
         inkscape:connector-curvature="0" />
      <path
         d="m 490.55956,419.54246 c 0,0 -4.39813,2.40773 -6.8125,1.96875 -2.41437,-0.43898 -4.81545,-1.75443 -3.9375,-0.4375 0.87795,1.31693 3.5,4.15625 3.5,4.15625 l 7.25,-5.6875 z m -31.875,6.78125 c -0.12191,0.0584 -0.1875,0.32628 -0.1875,0.875 0,1.7559 1.12426,4.18824 1.34375,3.96875 0,0 1.53494,-1.08785 0.4375,-2.84375 -0.75449,-1.20719 -1.32555,-2.1285 -1.59375,-2 z m -22.125,8.5625 c -2.85335,1.09744 -2.40108,2.62795 -3.9375,1.75 -1.53641,-0.87795 -2.21728,-1.97687 -2.65625,0.4375 -0.43898,2.41437 -1.10113,3.31324 1.09375,3.09375 2.19488,-0.21949 6.15625,-0.86983 6.15625,-2.40625 0,-1.53642 0.002,-2.21654 -0.65625,-2.875 z m 21.65625,3.21875 c -0.43212,0.0103 -0.92003,0.0389 -1.46875,0.0937 -2.19488,0.21949 -4.8312,1.30881 -8.5625,2.40625 -3.7313,1.09744 -10.3125,8.78125 -10.3125,8.78125 l 22.40625,-11.1875 c 0,0 -0.76615,-0.12462 -2.0625,-0.0937 z m -30.875,5.78125 c 0,0 -0.14942,0.21916 -0.4375,0.53125 0.28004,-0.27511 0.47755,-0.4912 0.4375,-0.53125 z m -1.75,1.6875 c -1.20719,0.85052 -3.08489,1.734 -5.71875,1.84375 -5.26771,0.21949 -5.47096,-0.66437 -4.8125,1.75 0.65847,2.41437 0.64518,2.41141 3.9375,0.875 2.03884,-0.95146 4.81208,-2.99682 6.59375,-4.46875 z m -25.03125,2.5 c -0.65847,0.43898 5.92053,10.52977 10.96875,10.96875 5.04823,0.43898 2.43676,-1.08784 2.65625,-2.84375 0.21949,-1.7559 -4.61762,-3.53199 -6.8125,-3.3125 -2.19488,0.21949 -6.8125,-4.8125 -6.8125,-4.8125 z m 33.59375,3.71875 c 0,0 -4.83489,-0.007 -7.46875,1.96875 -2.63385,1.9754 -6.59227,3.08858 -7.03125,4.625 -0.43897,1.53641 5.71875,-0.65625 5.71875,-0.65625 l 8.78125,-5.9375 z"
         id="path2901"
         style="fill:#1b392d;fill-opacity:1;stroke:none"
         inkscape:connector-curvature="0" />
      <path
         d="m 586.05482,477.68823 c 0,0 -22.47748,-4.35788 -35.32176,-7.33958 -12.84428,-2.98171 -25.4592,-4.35788 -35.09241,-5.27533 -9.6332,-0.91745 -29.58771,-1.8349 -36.46857,-1.8349 -6.88086,0 -36.46858,1.37617 -41.51454,2.75235 -5.04597,1.37617 -15.77438,2.93631 -20.82034,3.16568 -5.04597,0.22936 -4.86822,0.96283 -13.35462,0.73347 -8.4864,-0.22936 -10.53776,0.59109 -10.53776,0.59109 0,0 17.64799,-5.86642 21.7765,-7.70131 4.12852,-1.8349 14.90854,-10.3213 18.11961,-11.46811 3.21107,-1.14681 13.07364,-8.02768 17.20216,-8.94513 4.12852,-0.91744 17.66088,-12.38555 21.7894,-13.53236 4.12852,-1.14681 4.58724,-0.45872 8.02768,-2.52298 3.44043,-2.06426 6.19277,-8.25704 11.92683,-9.63321 5.73405,-1.37618 16.74343,-4.58725 20.64259,-4.81661 3.89915,-0.22936 22.24812,-5.04596 26.606,-3.89915 4.35788,1.14681 10.3213,5.04596 11.46811,6.88086 1.14681,1.8349 7.11022,4.58724 10.78002,4.35788 3.66979,-0.22936 4.12851,-0.68809 9.17448,1.60554 5.04597,2.29362 11.69747,7.56895 11.69747,7.56895 l 3.89915,49.31285 z"
         id="path2844"
         style="fill:#00784b;fill-opacity:1;stroke:url(#linearGradient4373);stroke-width:0.40000001;stroke-linecap:butt;stroke-linejoin:miter;stroke-miterlimit:4;stroke-opacity:1;stroke-dasharray:none"
         inkscape:connector-curvature="0" />
      <path
         d="m 316.6853,414.13916 c -1.60501,-0.0514 -2.6998,0.12278 -3.6875,0.78125 -1.31693,0.87795 -3.09154,1.9717 -3.75,1.09375 -0.65846,-0.87795 -2.18529,-2.41363 -2.84375,-0.21875 -0.43513,1.45044 -0.11711,2.17102 0.0312,2.40625 0.0935,0.0207 5.91033,1.30638 6.78125,0 0.87795,-1.31693 7.88386,-3.71801 5.25,-3.9375 -0.65846,-0.0549 -1.24625,-0.10785 -1.78125,-0.125 z m -10.25,4.0625 c -7.6e-4,-1.7e-4 -0.0312,0 -0.0312,0 0.14889,0.14889 0.10739,0.12073 0.0312,0 z m 13.25,2.625 c -0.0686,-0.048 -0.50468,0.0305 -1.4375,0.25 -3.7313,0.87795 -7.24336,3.2783 -9.21875,4.15625 -1.97539,0.87795 -4.59596,-0.88533 -3.9375,2.1875 0.57616,2.68873 1.15904,3.5507 1,3.71875 0.35338,-0.028 3.38664,-0.32352 3.59375,-2.1875 0.21949,-1.97539 2.20916,-3.71285 5.0625,-5.46875 2.14001,-1.31693 5.14327,-2.51221 4.9375,-2.65625 z"
         id="path2853"
         style="fill:#4d683e;fill-opacity:1;stroke:none"
         inkscape:connector-curvature="0" />
      <path
         d="m 547.2478,413.57666 c -0.22795,-0.006 -0.58009,0.13952 -1.15625,0.46875 -3.07284,1.7559 -3.09375,6.15625 -3.09375,6.15625 0,0.43898 3.07899,1.96875 7.46875,1.96875 4.38976,0 4.39665,-0.65182 7.25,-1.96875 2.85334,-1.31693 -4.61319,-1.11983 -8.125,-2.65625 -2.85335,-1.24834 -1.35595,-3.94298 -2.34375,-3.96875 z m -38.03125,9.125 c -2.31063,0.15004 -5.25529,1.59695 -4.84375,2.96875 0.65847,2.19488 6.38017,4.39739 6.38017,4.39739 l 7.02608,3.29011 c 0,0 -3.5059,-1.74557 -1.75,-3.0625 1.75591,-1.31693 7.22096,-2.65256 6.5625,-3.75 -0.65847,-1.09744 -3.9279,-0.87721 -6.78125,-0.21875 -2.85334,0.65846 -3.74926,0.88533 -3.96875,-2.1875 -0.0823,-1.15231 -1.23862,-1.52752 -2.625,-1.4375 z m 44.9375,4.03125 c -1.63496,-0.14768 -2.04208,2.94667 -3.46875,3.125 -1.75591,0.21949 -2.61024,-1.75443 -7,-0.4375 -4.38977,1.31693 -5.93528,1.96506 -6.59375,3.0625 -0.65846,1.09744 -5.27313,-0.4375 -7.6875,-0.4375 -2.41437,0 -6.59375,4.15625 -6.59375,4.15625 5.29786,0.51346 11.24402,0.91887 13.18898,1.99114 0,0 9.43405,-7.24262 16.23819,-6.80364 0,0 6.14492,-1.55438 3.29158,-3.96875 -0.535,-0.45269 -0.9977,-0.65342 -1.375,-0.6875 z m 16.25,7.65625 c -0.76135,0.0553 -1.55192,0.36134 -2.375,0.9375 -2.19488,1.53642 -5.49852,3.5187 -5.9375,7.25 -0.43898,3.7313 -0.19488,6.37204 2,7.25 2.19488,0.87795 3.73573,3.72317 -1.3125,2.40625 -5.04822,-1.31693 -5.93086,-5.69193 -7.90625,-4.375 -1.97539,1.31693 -2.65182,-3.75739 -3.96875,-1.5625 -1.31692,2.19488 -1.73745,3.09375 -5.46875,3.09375 -3.7313,0 -2.64371,1.96801 -6.375,2.1875 -3.7313,0.21949 -0.89223,3.93898 -5.0625,3.5 -4.17028,-0.43898 -5.02756,-2.1934 -6.125,-0.4375 -1.09744,1.75591 -3.28715,0.90109 -1.53125,2.4375 1.75591,1.53642 2.85261,2.40256 0.21875,3.5 -2.63385,1.09744 -9.21875,3.9375 -9.21875,3.9375 l 69.125,13.40625 0,-20.1875 c 0,0 -13.61466,-7.26501 -16.6875,-12.09375 -3.07283,-4.82874 -6.14566,-7.87869 0,-6.78125 6.14567,1.09744 16.6875,3.28125 16.6875,3.28125 l -3.5,-3.96875 c 0,0 -7.2441,-0.4316 -9,-2.1875 -1.09744,-1.09744 -2.29359,-1.68592 -3.5625,-1.59375 z m -12.90625,2.6875 c -1.53642,0 -1.96063,1.3125 -4.375,1.3125 -2.41437,0 -4.40552,1.34301 -4.625,1.5625 0,0 3.05807,0.65846 4.375,0 1.31693,-0.65847 6.16142,-2.875 4.625,-2.875 z m 3.5625,0.0937 c -0.0751,0.0214 -0.17151,0.0564 -0.28125,0.125 -1.7559,1.09744 -4.375,2.21284 -4.375,3.96875 0,1.53642 1.33299,1.20499 1.375,1.25 1.84698,-1.10703 4.39293,-5.66114 3.28125,-5.34375 z m -39.75,4.28125 c -3.56196,0.12003 -7.20115,1.25849 -6.625,2.21875 0.65847,1.09744 -2.84522,-0.66363 -2.40625,1.53125 0.43898,2.19488 -1.96063,2.21137 -4.375,4.40625 -2.41437,2.19488 0.41659,3.05881 -2.65625,4.15625 -3.07283,1.09744 -4.14961,-0.005 -6.125,1.53125 -1.9754,1.53642 -4.16659,2.875 -1.09375,2.875 3.07283,0 -0.90625,1.3125 -0.90625,1.3125 0,0 -0.42643,2.19488 -3.71875,0 -3.29233,-2.19488 -1.08194,-4.18528 -4.59375,-4.84375 -3.51181,-0.65846 -1.33268,-0.007 -4.625,1.96875 -3.29233,1.97539 -4.39001,3.3125 -9.21875,3.3125 -4.82873,0 -2.85433,-0.43898 -9,0 -6.14567,0.43898 -3.07087,0.21654 -9.875,0.875 -6.80414,0.65847 -1.32456,-1.31988 -7.03125,0.875 -5.7067,2.19489 -10.30487,3.72022 -3.28125,3.28125 7.02362,-0.43898 56.84375,0 56.84375,0 0,0 -0.20152,-4.15478 3.96875,-4.59375 4.17028,-0.43898 7.66437,-2.87057 5.25,-4.1875 -2.41437,-1.31693 -3.29822,-1.08416 1.75,-3.9375 5.04823,-2.85335 9.43824,-9.87205 9.21875,-10.75 -0.49385,-0.0274 -0.99115,-0.0484 -1.5,-0.0312 z m -51.03125,0.25 c -0.82308,0.0377 -1.52214,0.16314 -1.90625,0.4375 -1.53642,1.09744 -7.87721,7.25074 -7.21875,7.03125 0,0 5.05069,-5.50074 8.5625,-5.28125 3.51181,0.21949 10.28789,0.003 8.3125,-0.875 -1.48155,-0.65846 -5.28076,-1.42567 -7.75,-1.3125 z m 82.53125,14.21875 c 0.63789,-0.0343 1.07776,0.0846 1.1875,0.46875 0.43897,1.53642 -2.422,3.53125 -7.03125,3.53125 -4.60925,0 -8.35408,1.96653 -5.28125,2.625 3.07284,0.65846 2.43824,2.62721 2.21875,1.96875 -2.41436,0.21949 -6.61393,-0.65256 -9.90625,-1.75 -3.29232,-1.09745 -3.71875,-0.8691 -3.71875,-2.625 0,-1.75591 -2.85186,-3.09302 -0.4375,-3.3125 2.41437,-0.21949 6.58563,2.22171 9,1.34375 2.41437,-0.87795 1.33047,-0.21801 5.28125,-0.4375 2.96309,-0.16462 6.77384,-1.70962 8.6875,-1.8125 z"
         id="path2891"
         style="fill:#1b392d;fill-opacity:1;stroke:none"
         inkscape:connector-curvature="0" />
    </g>
    <path
       d="m 168.41435,81.716367 c 0,0 -8.07892,-3.314428 -14.08632,-5.800248 -6.0074,-2.485821 -10.56474,-3.935883 -8.49322,-4.350186 2.07152,-0.414304 4.35019,-1.657214 1.03576,-2.278669 -3.31443,-0.621455 -4.55734,-0.414304 -7.45746,-1.657214 -2.90013,-1.24291 -5.17879,-2.485821 -7.04316,-2.071517 -1.86437,0.414303 0.20715,-1.035759 3.10728,-1.657214 2.90012,-0.621455 10.77189,-1.24291 12.8434,-0.207152 2.07152,1.035759 9.94329,3.52158 12.63626,6.0074 2.69297,2.485821 4.97164,3.107276 7.87176,4.971641 2.90013,1.864366 7.25031,4.557338 7.25031,4.557338 l -7.66461,2.485821 z"
       transform="translate(265.71429,346.64789)"
       id="path3747"
       style="fill:#b8db7c;fill-opacity:1;stroke:none"
       inkscape:connector-curvature="0" />
    <path
       d="m 398.50946,448.03275 c 0,0 12.63626,-9.11468 24.85821,-16.57214 12.22195,-7.45746 19.26511,-9.32183 22.78669,-11.6005 3.52158,-2.27867 12.84341,-10.56473 16.98644,-10.56473 4.14304,0 8.28607,1.65721 11.80765,1.45006 3.52158,-0.20715 4.35019,-2.48582 8.49322,-1.45006 4.14303,1.03575 5.17879,0.4143 10.35759,1.24291 5.17879,0.8286 5.17879,2.27866 5.17879,2.27866 l -2.48582,3.31443 c 0,0 -7.45746,-1.86436 -11.80765,-1.24291 -4.35019,0.62146 -7.87176,-0.62145 -11.80765,0.41431 -3.93588,1.03575 -7.04316,0.4143 -11.60049,1.03575 -4.55734,0.62146 -7.04316,1.24291 -2.27867,1.45007 4.76449,0.20715 7.04316,0.4143 4.35018,1.45006 -2.69297,1.03576 -9.32182,3.93588 -10.97904,6.4217 -1.65721,2.48582 -3.31443,1.03576 -4.35018,1.86437 -1.03576,0.8286 -2.27867,2.69297 -5.38595,2.27867 -3.10727,-0.41431 -6.21455,0.20715 -7.25031,1.24291 -1.03576,1.03575 -2.48582,2.69297 3.72873,2.07151 6.21455,-0.62145 1.03576,4.97164 -1.24291,3.93589 -2.27867,-1.03576 0,-1.86437 -3.52158,-1.86437 -3.52158,0 -4.97164,-1.03576 -6.0074,-0.20715 -1.03576,0.82861 -3.93588,3.31443 -2.69297,3.72873 1.24291,0.4143 4.55734,1.03576 0.62146,1.65721 -3.93589,0.62146 -6.62886,0.62146 -5.38595,1.03576 1.24291,0.41431 6.83601,-1.86436 7.87177,-0.62145 1.03575,1.24291 -3.10728,1.86436 -5.5931,3.52158 -2.48582,1.65721 -1.45006,3.31443 -4.76449,2.90012 -3.31443,-0.4143 0.62145,1.24291 -3.31443,-0.62145 -3.93588,-1.86437 -6.0074,-1.45006 -6.0074,-1.45006 0,0 -3.10727,-0.20716 -2.07151,0.8286 1.03575,1.03576 3.72873,4.35019 1.86436,3.93589 -1.86436,-0.41431 -4.55734,-1.65722 -3.52158,0.20715 1.03576,1.86436 0.20715,2.27867 -0.82861,2.07151 -1.03575,-0.20715 -6.0074,-3.93588 -6.0074,-4.14303 z"
       id="path3745"
       style="fill:#b8db7c;fill-opacity:1;stroke:none"
       inkscape:connector-curvature="0" />
    <g
       id="g3692"
       style="fill:#ffe6d5">
      <path
         d="m 17.719153,150.0642 c 0,0 34.471807,-9.66499 40.915136,-10.63149 6.443328,-0.9665 63.788951,-15.46399 71.198781,-16.75265 7.40983,-1.28867 73.77611,-7.732 79.89727,-8.05416 6.12116,-0.32217 54.44613,4.51033 65.39978,5.79899 10.95366,1.28867 56.05696,9.665 56.05696,9.665 l -20.94082,66.04411 -19.97431,0.9665 c 0,0 -48.0028,-4.18816 -54.12396,-3.22166 -6.12117,0.9665 -41.55947,-0.32217 -50.58013,0.64433 -9.02066,0.9665 -14.81966,2.57733 -18.04132,0.64433 -3.22167,-1.93299 -3.866,1.61084 -12.56449,0 -8.69849,-1.61083 -26.09548,-0.9665 -26.09548,-0.9665 0,0 -31.572311,0.9665 -36.404807,0 -4.832496,-0.96649 -12.242324,3.22167 -20.618651,2.25517 -8.376327,-0.9665 -37.371305,-0.9665 -37.371305,-0.9665 L 17.719153,150.0642 z"
         transform="translate(265.71429,346.64789)"
         id="path3688"
         style="fill:url(#linearGradient4251);fill-opacity:1;stroke:none"
         inkscape:connector-curvature="0" />
      <path
         d="m 236.875,200.53125 c -6.12116,0.32216 -72.49642,6.77383 -79.90625,8.0625 -7.40983,1.28866 -64.775422,15.7835 -71.21875,16.75 -6.443329,0.9665 -40.90625,10.625 -40.90625,10.625 l 6.84375,18.5625 294.40625,0 L 358.3125,216 c 0,0 -45.10884,-8.36758 -56.0625,-9.65625 -10.95365,-1.28866 -59.25384,-6.13467 -65.375,-5.8125 z"
         transform="translate(238.58304,260.73539)"
         id="path4253"
         style="fill:url(#radialGradient4262);fill-opacity:1;stroke:none"
         inkscape:connector-curvature="0" />
      <path
         d="m 17.719153,150.0642 c 0,0 34.471807,-9.66499 40.915136,-10.63149 6.443328,-0.9665 63.788951,-15.46399 71.198781,-16.75265 7.40983,-1.28867 73.77611,-7.732 79.89727,-8.05416 6.12116,-0.32217 54.44613,4.51033 65.39978,5.79899 10.95366,1.28867 56.05696,9.665 56.05696,9.665 l -20.94082,66.04411 -19.97431,0.9665 c 0,0 -48.0028,-4.18816 -54.12396,-3.22166 -6.12117,0.9665 -41.55947,-0.32217 -50.58013,0.64433 -9.02066,0.9665 -14.81966,2.57733 -18.04132,0.64433 -3.22167,-1.93299 -3.866,1.61084 -12.56449,0 -8.69849,-1.61083 -26.09548,-0.9665 -26.09548,-0.9665 0,0 -31.572311,0.9665 -36.404807,0 -4.832496,-0.96649 -12.242324,3.22167 -20.618651,2.25517 -8.376327,-0.9665 -37.371305,-0.9665 -37.371305,-0.9665 L 17.719153,150.0642 z"
         id="path4264"
         style="opacity:0.35365852;fill:url(#radialGradient4266);fill-opacity:1;stroke:none"
         transform="translate(265.71429,346.64789)"
         inkscape:connector-curvature="0" />
      <path
         d="M 27.061979,192.59017 319.26692,189.36851 260.9548,244.1368 159.79455,258.95646 68.943614,233.50531 27.061979,192.59017 z"
         transform="translate(265.71429,346.64789)"
         id="path3690"
         style="fill:url(#linearGradient4274);fill-opacity:1;stroke:none"
         inkscape:connector-curvature="0" />
      <path
         d="M 27.061979,192.59017 319.26692,189.36851 260.9548,244.1368 159.79455,258.95646 68.943614,233.50531 27.061979,192.59017 z"
         transform="translate(265.71429,346.64789)"
         id="path4276"
         style="opacity:0.27743907;fill:url(#radialGradient4286);fill-opacity:1;stroke:none"
         inkscape:connector-curvature="0" />
    </g>
    <g
       id="g2820">
      <path
         d="m 168.0625,-84.5625 c -107.046306,0 -193.84375,86.7661938 -193.84375,193.8125 0,107.04631 86.797444,193.8125 193.84375,193.8125 107.04631,0 193.8125,-86.76619 193.8125,-193.8125 0,-107.0463062 -86.76619,-193.8125 -193.8125,-193.8125 z m 1.40625,48.75 c 80.28473,0 145.34375,64.942162 145.34375,145.0625 0,80.12034 -65.05902,145.0625 -145.34375,145.0625 -80.28473,0 -145.375,-64.94216 -145.375,-145.0625 0,-80.120338 65.09027,-145.0625 145.375,-145.0625 z"
         transform="translate(265.71429,346.64789)"
         id="path2970"
         style="fill:#16379a;fill-opacity:1;stroke:#800000;stroke-width:3;stroke-miterlimit:4;stroke-opacity:1;stroke-dasharray:none"
         inkscape:connector-curvature="0" />
      <path
         d="m 366.36188,105.88869 c 0.005,25.52151 -5.06488,51.03401 -14.82796,74.61429 -9.76308,23.58029 -24.2115,45.2098 -42.2561,63.25806 -18.04461,18.04825 -39.6712,32.50103 -63.24951,42.26887 -23.57831,9.76784 -49.08977,14.84305 -74.61129,14.84305 -25.52151,0 -51.03297,-5.07521 -74.611284,-14.84305 C 73.227427,276.26207 51.600839,261.80929 33.556231,243.76104 15.511623,225.71278 1.0632035,204.08327 -8.6998745,180.50298 -18.462952,156.9227 -23.533002,131.4102 -23.527832,105.88869 c -0.0052,-25.521513 5.06488,-51.034008 14.8279575,-74.614294 9.763078,-23.5802866 24.2114975,-45.209799 42.2561055,-63.258052 18.044608,-18.048253 39.671196,-32.501036 63.249505,-42.268875 23.578314,-9.76784 49.089774,-14.843045 74.611284,-14.843045 25.52152,0 51.03298,5.075205 74.61129,14.843045 9.54308,3.953432 18.76644,8.674325 27.56199,14.090444 12.93582,7.965615 24.94628,17.435023 35.68752,28.178431 18.0446,18.048253 32.49302,39.6777654 42.2561,63.258052 9.76308,23.580286 14.83313,49.092781 14.82796,74.614294 z"
         transform="matrix(0.73001285,0,0,0.72985138,309.72903,379.16833)"
         id="path3744"
         style="fill:none;stroke:#800000;stroke-width:3.69897461;stroke-linecap:round;stroke-linejoin:round;stroke-miterlimit:4;stroke-opacity:1;stroke-dasharray:none"
         inkscape:connector-curvature="0"
         sodipodi:nodetypes="cssssssscssssssssc" />
      <path
         d="m 366.36188,105.88869 a 194.94486,194.94486 0 1 1 -389.889712,0 194.94486,194.94486 0 1 1 389.889712,0 z"
         transform="matrix(0.7428161,0,0,0.7412951,307.83934,377.40295)"
         id="path3746"
         style="fill:none;stroke:#ffffff;stroke-width:3.63854361;stroke-linecap:round;stroke-linejoin:round;stroke-miterlimit:4;stroke-opacity:1;stroke-dasharray:none"
         inkscape:connector-curvature="0" />
    </g>
    <path
       d="m 260.15625,57.46875 c -0.70561,-0.01295 -1.42139,0.126773 -2.25,0.4375 -3.31442,1.24291 -5.38016,3.730348 -9.9375,3.9375 -4.55734,0.207151 -6.01772,2.070553 -9.125,1.65625 -3.10727,-0.414304 -9.33119,1.658831 -10.78125,3.9375 -1.45007,2.278669 -5.79897,5.987438 -8.90625,7.4375 -3.10727,1.450062 -4.96231,6.855348 -9.3125,7.0625 -4.35018,0.207151 -10.35793,3.717786 -12.84375,5.375 -2.48582,1.657213 -7.65433,5.377581 -10.96875,7.65625 -3.31443,2.278669 -8.70974,3.311536 -10.78125,4.96875 -2.07152,1.65721 -4.14273,2.47939 -7.25,4.34375 -3.10728,1.86437 -7.65174,5.60889 -8.6875,6.4375 -1.03575,0.8286 -0.22873,1.87596 3.5,0.21875 3.72873,-1.65721 6.64111,-5.39561 5.8125,-3.53125 -0.82861,1.86437 -3.95199,4.75451 0.8125,3.71875 4.76449,-1.03576 5.60534,-1.84278 5.8125,-3.5 0.20715,-1.65721 -1.04928,-1.26064 3.09375,-3.125 4.14304,-1.86437 9.75612,-0.61502 12.65625,-4.34375 2.90012,-3.728731 3.91592,-4.765143 7.4375,-5.59375 3.52158,-0.828607 4.98293,-3.511599 7.46875,-3.71875 2.48582,-0.207152 4.36502,3.705535 8.09375,-0.4375 3.72873,-4.143034 1.65367,-3.730349 -0.625,-3.9375 -2.27867,-0.207152 -2.28318,-1.648196 1.03125,-2.0625 3.31443,-0.414303 5.99291,-0.424938 4.75,-1.875 -1.24291,-1.450062 2.50805,2.709079 2.09375,-0.8125 -0.4143,-3.521579 -0.84568,-4.351803 2.46875,-3.9375 3.31443,0.414304 4.96779,2.06959 6.625,3.3125 1.65722,1.24291 2.08022,4.34375 5.1875,4.34375 3.10727,0 4.14369,2.070553 5.59375,1.65625 1.45007,-0.414304 1.66431,-1.636598 1.25,-1.84375 0,0 -7.87049,-3.526741 -8.90625,-4.5625 -1.03576,-1.035758 -0.83312,-2.714241 1.03125,-3.75 1.86436,-1.035758 2.26353,-3.914303 -0.84375,-3.5 -3.10727,0.414304 5.79736,-2.089241 4.96875,-3.125 -0.8286,-1.035758 4.98292,0.422357 7.46875,-0.40625 2.48582,-0.828607 7.67914,-6.425901 15.34375,-6.21875 7.66462,0.207152 10.35084,1.043812 11.59375,-0.40625 1.24291,-1.450062 0.60469,-3.108893 -4.78125,-3.9375 -4.03946,-0.621455 -5.97692,-1.836159 -8.09375,-1.875 z M 246.5,87.71875 c -2.27867,0.207152 -3.30992,2.503545 -1.03125,3.125 2.27867,0.621455 4.37146,-0.219714 3.75,1.4375 -0.62145,1.657214 -2.09117,3.523196 0.1875,3.9375 2.27867,0.414303 5.38756,-0.833115 3.9375,1.03125 -1.45007,1.864366 -1.87404,1.033835 -3.53125,3.3125 -1.38753,1.90785 -1.0063,3.38386 -1.21875,3.8125 0.62,-0.37719 7.75612,-4.745315 9.9375,-7.125 2.27867,-2.485821 11.19297,-3.530286 8.5,-5.1875 -2.69297,-1.657214 -4.37758,-1.035759 -6.65625,0 -2.27867,1.035759 -4.125,1.65625 -4.125,1.65625 0,0 3.71617,-2.460697 1.4375,-2.875 -2.27867,-0.414304 -2.4723,0.805411 -3.09375,-0.4375 -0.62146,-1.24291 -0.42043,-2.050902 -2.90625,-1.84375 -2.48582,0.207152 -2.90883,-1.050902 -5.1875,-0.84375 z m 2.09375,16.65625 c -0.0276,0.0168 -0.21875,0.125 -0.21875,0.125 0.10113,0 0.17746,-0.0417 0.21875,-0.125 z"
       transform="translate(265.71429,346.64789)"
       id="path3739"
       style="fill:#b8db7c;fill-opacity:1;stroke:none"
       inkscape:connector-curvature="0" />
    <path
       d="m 62.34375,50.21875 c -2.692972,0 -1.439117,3.332152 -5.375,3.125 -3.935882,-0.207152 -6.015144,-1.664304 -6.84375,-1.25 -0.828607,0.414303 -2.926522,4.609928 1.25,3.71875 2.95699,-0.630957 5.461355,-0.984723 2.8125,1.28125 -1.413891,1.209517 3.28251,1.57138 4.5,2 0.904198,0.318324 -1.055099,-1.406227 2.09375,-1.59375 3.093756,-0.184242 1.323181,1.4533 2.34375,1.53125 1.317635,0.10064 2.888695,0.526605 4.40625,1.34375 2.692973,1.450062 3.323135,2.480348 5.1875,2.6875 1.864366,0.207152 6.614365,0.41334 4.75,1.65625 -1.864366,1.24291 -4.973258,1.245491 -3.9375,2.28125 1.035759,1.035758 1.861475,2.71166 4.96875,1.46875 3.107276,-1.24291 7.262562,2.255473 5.8125,-0.4375 -1.450062,-2.692972 -2.478731,-5.775124 1.25,-2.875 3.635513,2.827621 8.235769,5.241577 7.3125,5.9375 0.876397,0.01461 2.000726,0.440403 2.21875,1.3125 0.362516,1.450061 3.25946,2.108392 3.5625,2.25 0.151798,-0.226047 0.724301,-1.620144 -3.78125,-5.5625 -4.971641,-4.350186 -10.16334,-10.371455 -11.40625,-9.75 -1.24291,0.621456 1.250964,1.233893 -0.40625,2.0625 -1.657213,0.828607 -1.252581,3.524161 -3.53125,2.28125 -2.278669,-1.24291 0.835043,-2.905286 -4.34375,-4.5625 -5.178793,-1.657213 -2.490019,-2.678483 -6.21875,-4.75 -3.728731,-2.071517 -3.932027,-4.15625 -6.625,-4.15625 z m 30.53125,20.875 c -0.315182,-0.0053 -0.587957,0.06122 -0.78125,0.15625 0.300275,0.02038 0.553617,-0.01118 0.71875,-0.09375 0.03107,-0.01554 0.03883,-0.04466 0.0625,-0.0625 z M 92.09375,71.25 c -1.959811,-0.133027 -6.257638,-2.022684 -5.71875,0.3125 0.621455,2.692972 -1.427829,5.808955 2.09375,5.1875 3.521579,-0.621455 4.535759,-3.53834 3.5,-4.78125 -0.294675,-0.353611 -0.165573,-0.575886 0.125,-0.71875 z M 67.03125,55.9375 c 0.902132,0 1.625,0.290168 1.625,0.65625 0,0.366082 -0.722868,0.65625 -1.625,0.65625 -0.902132,0 -1.65625,-0.290168 -1.65625,-0.65625 0,-0.366082 0.754118,-0.65625 1.65625,-0.65625 z m 5.375,3.6875 c 0.92828,0 1.6875,0.271992 1.6875,0.625 0,0.353008 -0.75922,0.65625 -1.6875,0.65625 -0.92828,0 -1.65625,-0.303242 -1.65625,-0.65625 0,-0.353008 0.72797,-0.625 1.65625,-0.625 z m 28.78125,18.5 c -0.34127,0.06408 -0.27817,0.621801 0.71875,2.34375 2.27867,3.935882 8.08118,8.084733 9.53125,10.15625 1.45006,2.071517 -0.41141,1.4375 -4.96875,1.4375 -4.55733,0 -2.48551,1.049938 -7.25,2.5 -4.76449,1.450062 -0.626931,2.268688 2.6875,3.71875 3.31442,1.450062 8.70361,7.25548 7.875,4.5625 -0.8286,-2.69297 3.12693,-4.155286 -0.1875,-5.8125 -3.31443,-1.657213 -0.22068,-1.84375 3.09375,-1.84375 3.31442,0 2.27578,-1.67074 4.96875,3.09375 2.69297,4.76448 2.27933,9.95006 5.59375,8.5 3.31443,-1.45007 4.36695,-3.30992 4.78125,-1.03125 0.41431,2.27867 0.61148,2.07313 3.71875,3.9375 3.10728,1.86436 3.93654,2.47938 5.59375,4.34375 1.65722,1.86436 4.14015,2.70715 4.96875,2.5 0.82861,-0.20716 3.9375,0.19556 3.9375,-0.21875 0,0 -8.27674,-5.60889 -9.3125,-6.4375 -1.03576,-0.82861 -1.44524,-5.99357 -8.28125,-10.34375 -6.83601,-4.350186 -14.52932,-9.103421 -17.84375,-12.625 -3.31443,-3.521579 -5.79994,-7.460697 -7.25,-7.875 -0.81566,-0.233046 -1.93622,-0.988635 -2.375,-0.90625 z M 68.15625,81.5 c -4.143034,0 -6.223258,1.053483 -5.1875,3.125 1.035759,2.071517 3.721331,2.488402 6,2.28125 2.278669,-0.207152 0.414957,0.186536 5.59375,1.84375 3.236746,1.035758 4.2269,0.63394 4.5,0.375 C 78.906624,88.916058 75.535977,84.404797 72.5,84 69.392724,83.585697 72.299285,81.5 68.15625,81.5 z m 10.90625,7.625 c 0.0037,0.0049 0.0625,0.0625 0.0625,0.0625 0,-0.310728 0.10136,-0.217864 -0.0625,-0.0625 z"
       transform="translate(265.71429,346.64789)"
       id="path3749"
       style="fill:#b8db7c;fill-opacity:1;stroke:none"
       inkscape:connector-curvature="0" />
    <g
       transform="translate(-404.15587,3.769133)"
       id="g4179">
      <path
         d="m 620.01182,295.05094 c 0,0 8.11534,-3.57074 8.60226,-8.27764 0.48692,-4.7069 1.46076,-21.26219 1.62307,-24.99524 0.1623,-3.73306 -1.13615,-6.00535 -1.13615,-6.00535 l -3.40844,-0.16231 c 0,0 -1.62307,1.62307 -1.78538,0.64923 -0.16231,-0.97384 -7.95303,2.59691 -7.95303,2.59691 0,0 -2.59691,-0.48692 -2.59691,-1.29846 0,-0.81153 -2.75921,1.13615 -2.4346,-1.29845 0.32461,-2.4346 -0.64923,-4.54459 -0.48692,-5.51843 0.16231,-0.97384 -2.10999,-2.10999 -1.62307,-3.73306 0.48692,-1.62306 2.10999,-3.24613 2.59691,-4.05766 0.48692,-0.81154 -2.92152,-0.32462 -2.10999,-2.10999 0.81154,-1.78538 -1.29845,-3.57075 -0.97384,-5.35613 0.32462,-1.78537 0.16231,-6.00535 2.75922,-8.11533 2.59691,-2.10999 8.76456,-7.79073 15.25683,-9.73841 6.49227,-1.94768 12.0107,-3.89536 15.25684,-3.08383 3.24613,0.81154 4.05767,-5.51843 5.03151,-3.08383 0.97384,2.43461 5.84304,-0.97384 5.51843,0.64923 -0.32462,1.62307 9.7384,0.97384 6.81688,1.78538 -2.92152,0.81153 8.27765,1.13614 5.68074,1.29845 -2.59691,0.16231 2.59691,2.75921 -0.16231,2.75921 -2.75921,0 16.39298,6.00535 18.82759,9.5761 2.4346,3.57075 8.60225,18.17836 7.3038,21.26219 -1.29845,3.08383 -4.7069,6.00535 -4.7069,6.00535 0,0 0,-6.65458 -0.64922,-6.32997 -0.64923,0.32462 -1.94768,7.62842 -3.89537,7.46612 -1.94768,-0.16231 -6.49227,2.92152 -6.97919,2.10998 -0.48692,-0.81153 -2.27229,1.29846 -3.08382,0 -0.81154,-1.29845 -2.43461,-2.5969 -4.05767,-3.08382 -1.62307,-0.48693 -2.10999,-0.97385 -5.03151,-1.13615 -2.92153,-0.16231 -2.92153,0 -2.4346,5.84304 0.48692,5.84304 0.81153,24.34602 2.10998,27.42984 1.29846,3.08383 10.87456,8.76457 10.87456,8.76457 0,0 -5.84305,-2.2723 -5.35613,-1.46076 0.48692,0.81153 1.13615,2.92152 -1.62306,1.46076 -2.75922,-1.46076 -3.24614,0.97384 -4.54459,0.64923 -1.29846,-0.32462 -1.94769,1.94768 -2.75922,0.64922 -0.81153,-1.29845 0.16231,1.94768 -1.46076,1.62307 -1.62307,-0.32461 -1.94768,0.81153 -3.40844,-0.48692 -1.46076,-1.29845 -2.59691,3.73306 -5.19382,0.97384 -2.59691,-2.75921 -7.62842,-1.78537 -9.90071,-1.13615 -2.27229,0.64923 -5.68074,0.64923 -5.68074,0.64923 l -3.40844,-2.27229 c 0,0 -4.38228,0.1623 -3.57075,-1.13615 0.81154,-1.29846 -5.68073,-0.16231 -5.84304,-0.32462 z"
         transform="translate(238.58304,260.73539)"
         id="path4001"
         style="fill:url(#linearGradient4189);fill-opacity:1;stroke:#b56233;stroke-width:0.69599998;stroke-linecap:round;stroke-linejoin:round;stroke-miterlimit:4;stroke-opacity:1;stroke-dasharray:none"
         inkscape:connector-curvature="0" />
      <path
         d="m 620.01182,295.05094 c 0,0 8.11534,-3.57074 8.60226,-8.27764 0.48692,-4.7069 1.46076,-21.26219 1.62307,-24.99524 0.1623,-3.73306 -1.13615,-6.00535 -1.13615,-6.00535 l -3.40844,-0.16231 c 0,0 -1.62307,1.62307 -1.78538,0.64923 -0.16231,-0.97384 -7.95303,2.59691 -7.95303,2.59691 0,0 -2.59691,-0.48692 -2.59691,-1.29846 0,-0.81153 -2.75921,1.13615 -2.4346,-1.29845 0.32461,-2.4346 -0.64923,-4.54459 -0.48692,-5.51843 0.16231,-0.97384 -2.10999,-2.10999 -1.62307,-3.73306 0.48692,-1.62306 2.10999,-3.24613 2.59691,-4.05766 0.48692,-0.81154 -2.92152,-0.32462 -2.10999,-2.10999 0.81154,-1.78538 -1.29845,-3.57075 -0.97384,-5.35613 0.32462,-1.78537 0.16231,-6.00535 2.75922,-8.11533 2.59691,-2.10999 8.76456,-7.79073 15.25683,-9.73841 6.49227,-1.94768 12.0107,-3.89536 15.25684,-3.08383 3.24613,0.81154 4.05767,-5.51843 5.03151,-3.08383 0.97384,2.43461 5.84304,-0.97384 5.51843,0.64923 -0.32462,1.62307 9.7384,0.97384 6.81688,1.78538 -2.92152,0.81153 8.27765,1.13614 5.68074,1.29845 -2.59691,0.16231 2.59691,2.75921 -0.16231,2.75921 -2.75921,0 16.39298,6.00535 18.82759,9.5761 2.4346,3.57075 8.60225,18.17836 7.3038,21.26219 -1.29845,3.08383 -4.7069,6.00535 -4.7069,6.00535 0,0 0,-6.65458 -0.64922,-6.32997 -0.64923,0.32462 -1.94768,7.62842 -3.89537,7.46612 -1.94768,-0.16231 -6.49227,2.92152 -6.97919,2.10998 -0.48692,-0.81153 -2.27229,1.29846 -3.08382,0 -0.81154,-1.29845 -2.43461,-2.5969 -4.05767,-3.08382 -1.62307,-0.48693 -2.10999,-0.97385 -5.03151,-1.13615 -2.92153,-0.16231 -2.92153,0 -2.4346,5.84304 0.48692,5.84304 0.81153,24.34602 2.10998,27.42984 1.29846,3.08383 10.87456,8.76457 10.87456,8.76457 0,0 -5.84305,-2.2723 -5.35613,-1.46076 0.48692,0.81153 1.13615,2.92152 -1.62306,1.46076 -2.75922,-1.46076 -3.24614,0.97384 -4.54459,0.64923 -1.29846,-0.32462 -1.94769,1.94768 -2.75922,0.64922 -0.81153,-1.29845 0.16231,1.94768 -1.46076,1.62307 -1.62307,-0.32461 -1.94768,0.81153 -3.40844,-0.48692 -1.46076,-1.29845 -2.59691,3.73306 -5.19382,0.97384 -2.59691,-2.75921 -7.62842,-1.78537 -9.90071,-1.13615 -2.27229,0.64923 -5.68074,0.64923 -5.68074,0.64923 l -3.40844,-2.27229 c 0,0 -4.38228,0.1623 -3.57075,-1.13615 0.81154,-1.29846 -5.68073,-0.16231 -5.84304,-0.32462 z"
         transform="translate(238.58304,260.73539)"
         id="path4231"
         style="fill:url(#radialGradient4243);fill-opacity:1;stroke:#c8ab37;stroke-width:0.69599998;stroke-linecap:round;stroke-linejoin:round;stroke-miterlimit:4;stroke-opacity:1;stroke-dasharray:none"
         inkscape:connector-curvature="0" />
      <path
         d="m 642.71875,213.8125 c -0.15089,-0.003 -0.30644,0.0329 -0.46875,0.0937 -1.1878,0.44542 -9.68176,2.09244 -11.25,2.125 0.77237,0.0713 7.13646,0.67761 8.96875,1.59375 0.33101,0.16551 0.57531,0.31801 0.78125,0.46875 1.00579,0.73621 0.51875,1.33819 -1.90625,2.28125 -2.78457,1.08288 -8.21249,3.79523 -4.78125,3.34375 -11.24883,7.75477 -23.44247,28.81001 -19.25,30.90625 5.75872,-12.12654 10.97628,-21.17166 15.58334,-22.36555 -1.15681,2.78556 -8.51955,17.44794 -9.58334,20.2718 l 12.9375,-19.5625 7.75,-8.875 c 2.59665,0.40124 2.91288,1.28393 2.03125,2.3125 -0.2252,0.26273 -0.21508,0.37109 -0.0625,0.40625 -10.19203,7.44555 -13.58601,16.3117 -15.03125,25.5625 l 18.15625,-26.15625 c 0.54484,-0.0909 1.11237,-0.15625 1.65625,-0.15625 0.41695,0 0.76533,0.0233 1.0625,0.0625 -7.11549,13.42787 -8.58896,19.75998 -10,26.0625 3.1962,-9.8211 6.59565,-18.62593 10.28125,-26 1.28821,0.24997 1.42499,0.89124 2.0625,1.65625 0.58836,0.70603 -0.43647,-0.69054 0.25,-1.28125 0.26039,-0.22406 0.75018,-0.33479 1.6875,-0.15625 1.00875,0.19214 1.34015,-0.0698 1.4375,-0.46875 l 13.6875,26.75 c -1.41756,-9.49943 -6.16765,-18.78486 -13.65625,-27.90625 -0.0125,-0.67744 0.22987,-1.14965 2.28125,-0.34375 3.76349,1.47852 0.97669,-0.0347 1.46875,-1.15625 l 18.34375,31.1875 c -3.61308,-11.25083 -8.18685,-22.1953 -18.125,-31.46875 0.13702,-0.12038 0.32446,-0.24871 0.59375,-0.34375 0.5117,-0.1806 0.79764,-0.27918 1.09375,-0.40625 7.47355,7.59991 13.82955,17.80744 19.84375,28.8125 -4.27787,-10.77794 -10.44188,-20.61211 -19.75,-28.875 0.28753,-0.12724 0.5583,-0.24166 0.6875,-0.34375 7.86458,6.96658 15.72917,15.09925 23.59375,25.96875 -3.59479,-5.63375 -7.96211,-15.05608 -12.30095,-19.85278 5.79363,4.62562 11.3851,10.05986 16.2072,18.57158 -3.92705,-17.63586 -15.73996,-22.2732 -27.625,-26.78125 -0.0126,-0.005 -0.0187,-0.0265 -0.0312,-0.0312 -1.20208,-0.82928 -3.99491,-1.60683 -4.96875,-2.09375 -1.29845,-0.64923 0.15335,-2.4375 -2.28125,-2.4375 -2.4346,0 -0.79917,1.30547 -5.34375,0.65625 -3.97652,-0.56808 -4.97499,-2.00685 -6.03125,-2.03125 l -5e-5,-5e-5 z m -17.5,5.28125 c -7.25084,4.32732 -12.7742,9.95077 -16.5625,16.875 4.92528,-6.51833 10.6689,-11.80915 16.5625,-16.875 z m 36.5625,2.15625 2.6875,2.5 c -0.93048,-0.70794 -1.89275,-1.38285 -2.875,-2.03125 0.12692,-0.14308 0.17302,-0.28274 0.1875,-0.46875 z m -33.8125,0.75 c -7.47806,3.79629 -14.00018,9.06447 -18.03125,18.03125 5.33252,-6.91428 11.23131,-13.07353 18.03125,-18.03125 z M 660.25,254.15625 c 0,0 -1.10876,1.46269 -3.21875,1.625 -2.10999,0.16231 -1.8103,1.59981 -5.21875,1.4375 -3.40844,-0.16231 -0.49079,1.96366 -3.25,2.9375 -2.75922,0.97384 -6.47867,-3.07655 -9.5625,-4.375 -3.08383,-1.29846 -2.25895,3.57172 -4.53125,0.8125 -2.27229,-2.75921 -5.53125,-0.8125 -5.53125,-0.8125 l 0.8125,3.875 c 0,0 4.22358,0.67635 8.28125,1.8125 4.05767,1.13614 6.66618,0.48183 9.75,0.96875 3.08383,0.48692 11.5,-3.09375 11.5,-3.09375 l 0.96875,-5.1875 z m -0.625,7.46875 c -6.69768,2.55758 -15.68801,3.36255 -29.71875,0.3125 l -0.15625,4.71875 c 0,0 1.30135,-1.47384 2.4375,-0.5 0.071,0.0609 0.14901,0.11793 0.21875,0.15625 l -2.15625,12.65625 1.9375,-3.0625 c 1.27563,-2.01976 1.16792,-6.59587 0.9375,-9.53125 0.69557,-0.18478 1.29263,-0.91499 1.84375,-0.34375 l -2.625,18.78125 c 0,0 0.33963,-1.28196 2.125,-7.125 1.14828,-3.758 1.17224,-8.35625 1.03125,-11.1875 0.82307,0.53253 2.14161,0.18751 3.53125,0.625 -1.21122,10.06971 -0.60721,20.96453 -6.84375,28.75 0,0 5.66327,-5.54626 6.3125,-7.65625 0.58718,-1.90832 0.78161,-17.8383 0.8125,-21 0.0611,0.0241 0.12637,0.0347 0.1875,0.0625 1.58353,0.71979 2.91171,-1.72829 4.4375,-0.9375 0.97053,11.54281 2.0193,23.113 -6.5625,31.3125 0,0 2.28415,-0.99491 4.71875,-1.96875 2.4346,-0.97384 3.38808,-6.656 3.875,-11.6875 0.4028,-4.1623 -1.00698,-13.89862 -1.53125,-17.28125 0.0316,0.0315 0.0619,0.0591 0.0937,0.0937 1.78537,1.94768 1.27712,0.79819 3.0625,4.53125 1.78537,3.73305 1.79529,20.77107 3.09375,22.71875 1.29845,1.94769 1.1451,3.57558 2.28125,4.0625 1.13615,0.48692 3.25,1.15625 3.25,1.15625 l 1.78125,-2.9375 2.75,0.34375 c 0,0 -3.25922,-3.74903 -0.5,-2.9375 2.75921,0.81153 6.03125,1.96173 6.03125,1.3125 0,-0.64922 -5.21462,-5.70058 -7,-6.1875 -1.78537,-0.48692 -4.20664,-6.97454 -4.53125,-11.84375 -0.32462,-4.8692 -0.81154,-8.42539 0,-8.75 0.81153,-0.32461 0.80934,-1.29433 3.40625,-1.78125 2.59691,-0.48693 0.96875,-2.4375 0.96875,-2.4375 l 0.5,-2.4375 5e-5,5e-5 z"
         transform="translate(238.58304,260.73539)"
         id="path4005"
         style="fill:#786721;fill-opacity:0.84713374;stroke:#c8ab37;stroke-width:1.39600003;stroke-linecap:round;stroke-linejoin:round;stroke-miterlimit:4;stroke-opacity:0.38216565;stroke-dasharray:none"
         inkscape:connector-curvature="0" />
    </g>
    <g
       transform="translate(-398.07585,2.1443363)"
       id="g4336">
      <use
         transform="matrix(0.99049576,0.13754325,-0.12588574,0.90654608,72.864502,-56.043997)"
         id="use4357"
         x="0"
         y="0"
         width="390.35626"
         height="390.32501"
         xlink:href="#path4288" />
      <use
         transform="matrix(0.8610927,0.36389257,-0.37855253,0.82774572,305.0037,-192.81264)"
         id="use4355"
         x="0"
         y="0"
         width="390.35626"
         height="390.32501"
         xlink:href="#path4288" />
      <use
         transform="matrix(0.99622902,-0.0867626,0.07683527,0.88224095,-36.942521,134.32554)"
         id="use4353"
         x="0"
         y="0"
         width="390.35626"
         height="390.32501"
         xlink:href="#path4288" />
      <path
         d="m 788.89504,562.06497 0.46775,-7.37022 -7.96136,-71.40342 -1.31587,-0.31023 1.10625,-6.27585 2.46563,5.84713 -1.01205,0.73895 8.21015,70.90584 2.58148,7.92747 -3.17261,-3.85324 -1.36937,3.79357 z"
         id="path4288"
         style="fill:#7a1610;fill-opacity:1;stroke:#000000;stroke-width:0.2;stroke-linecap:butt;stroke-linejoin:miter;stroke-miterlimit:4;stroke-opacity:0.38216565;stroke-dasharray:none"
         inkscape:connector-curvature="0" />
      <use
         transform="matrix(0.95898276,0.28346441,-0.28346441,0.95898276,177.25633,-201.19398)"
         id="use4312"
         x="0"
         y="0"
         width="390.35626"
         height="390.32501"
         xlink:href="#path4288" />
      <use
         transform="translate(-6.4416443,0.83036951)"
         id="use4314"
         x="0"
         y="0"
         width="390.35626"
         height="390.32501"
         xlink:href="#path4288" />
      <use
         transform="matrix(0.94076104,-0.33907029,0.33907029,0.94076104,-131.67596,298.44581)"
         id="use4316"
         x="0"
         y="0"
         width="390.35626"
         height="390.32501"
         xlink:href="#path4288" />
      <use
         transform="matrix(0.74413962,0.66802412,-0.66802412,0.74413962,544.16974,-391.22648)"
         id="use4318"
         x="0"
         y="0"
         width="390.35626"
         height="390.32501"
         xlink:href="#path4288" />
      <use
         transform="matrix(0.85418861,0.51996328,-0.51996328,0.85418861,385.18446,-334.3829)"
         id="use4320"
         x="0"
         y="0"
         width="390.35626"
         height="390.32501"
         xlink:href="#path4288" />
      <use
         transform="matrix(0.71333705,0.70082112,-0.70082112,0.71333705,592.20363,-401.64984)"
         id="use4330"
         x="0"
         y="0"
         width="390.35626"
         height="390.32501"
         xlink:href="#path4288" />
      <use
         transform="matrix(0.912199,0.40974746,-0.40974746,0.912199,280.58873,-279.81898)"
         id="use4332"
         x="0"
         y="0"
         width="390.35626"
         height="390.32501"
         xlink:href="#path4288" />
      <use
         transform="matrix(0.85967161,-0.51084707,0.51084707,0.85967161,-158.21593,476.91369)"
         id="use4334"
         x="0"
         y="0"
         width="390.35626"
         height="390.32501"
         xlink:href="#path4288" />
      <path
         d="m 505.53729,258.26549 12.1071,0.26319"
         transform="translate(272.39305,262.93085)"
         id="path4351"
         style="fill:none;stroke:#8a2929;stroke-width:2.70000005;stroke-linecap:butt;stroke-linejoin:miter;stroke-miterlimit:4;stroke-opacity:1;stroke-dasharray:none"
         inkscape:connector-curvature="0" />
      <path
         d="m 777.40394,519.22235 13.2915,0.2632"
         id="path4347"
         style="fill:none;stroke:#401a19;stroke-width:1.60000002;stroke-linecap:round;stroke-linejoin:round;stroke-miterlimit:4;stroke-opacity:1;stroke-dasharray:none"
         inkscape:connector-curvature="0" />
      <path
         d="m 505.14249,260.23947 12.9625,0.329"
         transform="translate(272.39305,262.93085)"
         id="path4349"
         style="fill:none;stroke:#481d1c;stroke-width:1.60000002;stroke-linecap:round;stroke-linejoin:round;stroke-miterlimit:4;stroke-opacity:1;stroke-dasharray:none"
         inkscape:connector-curvature="0" />
    </g>
    <path
       inkscape:connector-curvature="0"
       style="font-size:30.02224731px;font-style:normal;font-variant:normal;font-weight:bold;font-stretch:normal;text-align:center;text-anchor:middle;fill:#ffffff;fill-opacity:1;stroke:none;font-family:Times New Roman;-inkscape-font-specification:Times New Roman Bold"
       d="m 458.06351,612.04988 c -0.33794,-0.0128 -0.6865,0.0234 -1.04918,0.0698 -1.41986,0.18225 -2.63259,0.77921 -3.67913,1.792 -1.04656,1.01283 -1.84279,2.40967 -2.36304,4.22293 l 0.60868,0.11923 c 0.81286,-1.65213 1.93103,-2.54703 3.37145,-2.73193 0.92599,-0.11884 1.72224,0.0738 2.4233,0.60622 0.70102,0.53231 1.10583,1.24213 1.21544,2.09609 0.0793,0.61735 0.0208,1.22576 -0.23116,1.86989 -0.25199,0.64417 -0.59871,1.15581 -1.01379,1.50708 -0.41508,0.35134 -1.19887,0.76998 -2.32819,1.26004 l 0.0834,0.52891 c 1.96151,0.20842 3.51381,0.85084 4.65406,1.91239 1.14024,1.06158 1.80511,2.28683 1.98602,3.69638 0.11886,0.92597 -0.0707,1.7248 -0.53866,2.39668 -0.46804,0.67187 -1.07027,1.07601 -1.83164,1.17373 -0.87455,0.11226 -1.87714,-0.19509 -2.98528,-0.88425 -1.10813,-0.6892 -1.74652,-1.05463 -1.92175,-1.11579 -0.31685,-0.10573 -0.63062,-0.12972 -0.97014,-0.0861 -0.4424,0.0569 -0.8366,0.2711 -1.13319,0.64906 -0.29662,0.37796 -0.40196,0.80017 -0.3412,1.27344 0.0832,0.64816 0.43669,1.12816 1.07597,1.46443 0.88807,0.48214 2.23744,0.61543 4.0071,0.38823 2.65448,-0.34071 4.66222,-1.38326 6.04543,-3.11385 1.3832,-1.73057 1.93996,-3.6686 1.66001,-5.84981 -0.1664,-1.29638 -0.64217,-2.34364 -1.38518,-3.12153 -0.74304,-0.77789 -1.75521,-1.36927 -3.03426,-1.80123 0.86626,-0.66546 1.47523,-1.38129 1.82073,-2.15251 0.34548,-0.77117 0.46739,-1.54234 0.36836,-2.31402 -0.15188,-1.18318 -0.73835,-2.1656 -1.79334,-2.92961 -0.79124,-0.57299 -1.70699,-0.88746 -2.72083,-0.92597 z m -14.19413,1.28236 c -0.2977,-0.0411 -0.57019,-0.0569 -0.876,-0.0452 -1.20244,0.0449 -2.33659,0.50954 -3.38312,1.39456 -1.04651,0.88509 -1.81533,2.10269 -2.28477,3.7084 -0.57107,1.94171 -0.81271,4.06548 -0.72717,6.35632 0.063,1.68965 0.36375,3.33159 0.86871,4.90093 0.38582,1.15858 0.80498,2.06647 1.28739,2.75432 0.66833,0.94042 1.4149,1.6679 2.25316,2.15561 0.83826,0.4877 1.76028,0.70806 2.77614,0.67013 0.89146,-0.0333 1.73524,-0.27736 2.47629,-0.7254 0.74103,-0.44809 1.38151,-1.04494 1.95086,-1.78245 0.56931,-0.73749 1.01199,-1.65071 1.32263,-2.7834 0.52272,-1.84645 0.7361,-3.83451 0.65752,-5.93879 -0.0859,-2.30122 -0.49869,-4.39257 -1.26556,-6.30508 -0.55023,-1.39115 -1.38528,-2.489 -2.47895,-3.2838 -0.82025,-0.59606 -1.68404,-0.95284 -2.57713,-1.07618 z m -0.48279,1.03272 c 0.37743,0.0482 0.67023,0.19461 0.87391,0.43611 0.41285,0.49323 0.69517,1.44172 0.85264,2.8787 0.0643,0.61006 0.16697,2.79029 0.30479,6.48053 l 0.19055,6.66594 c -0.0169,1.21514 -0.2507,2.11472 -0.6644,2.71146 -0.24677,0.34138 -0.63862,0.52982 -1.1569,0.54917 -0.47685,0.0178 -0.84455,-0.0918 -1.1441,-0.3297 -0.29956,-0.23794 -0.53727,-0.70267 -0.72025,-1.43285 -0.24525,-1.00811 -0.43041,-3.02728 -0.54186,-6.01268 -0.20479,-5.48353 -0.25909,-8.67407 -0.15858,-9.5965 0.10053,-0.92238 0.3254,-1.5819 0.69538,-1.95907 0.24985,-0.25843 0.5998,-0.37942 1.04555,-0.39608 0.14512,-0.005 0.29748,-0.0111 0.42327,0.005 z m -26.42343,-2.31288 -8.20137,2.43356 0.20991,0.57273 c 0.79677,-0.22077 1.45111,-0.29113 1.97476,-0.21585 0.32855,0.0473 0.61722,0.19535 0.84443,0.4009 0.22718,0.20562 0.36994,0.43526 0.42768,0.68983 0.0578,0.25458 0.0104,0.8487 -0.12846,1.81381 l -1.54657,10.81408 c -0.18895,1.31424 -0.39449,2.15066 -0.57963,2.49083 -0.18516,0.34018 -0.47081,0.58596 -0.88023,0.73669 -0.40943,0.15073 -1.06713,0.18259 -1.96039,0.0541 l -0.5469,-0.0811 -0.0812,0.54688 11.00524,1.59614 0.0839,-0.57923 -0.4822,-0.0753 c -0.79063,-0.11368 -1.34973,-0.295 -1.67663,-0.57254 -0.32689,-0.27755 -0.53674,-0.59528 -0.59873,-0.96576 -0.062,-0.37046 0.004,-1.20951 0.18874,-2.49293 l 2.46204,-17.08856 -0.51455,-0.0783 z m 12.28003,1.18774 c -2.0821,-0.11004 -3.75552,0.33924 -5.00865,1.34805 -1.25312,1.00887 -1.91062,2.22844 -1.98512,3.6372 -0.0564,1.06695 0.13301,2.02001 0.56161,2.85288 0.42859,0.83292 1.43119,1.93798 3.03158,3.30028 -1.57033,0.62333 -2.71413,1.32659 -3.4168,2.14119 -0.7027,0.81465 -1.0804,1.80089 -1.14011,2.92999 -0.0784,1.48129 0.43085,2.76446 1.51608,3.85021 1.08522,1.08576 2.68044,1.68156 4.76255,1.79166 2.19602,0.11608 3.94026,-0.37867 5.28171,-1.48677 1.34145,-1.10807 2.07629,-2.50901 2.16614,-4.20783 0.0641,-1.21195 -0.16067,-2.31977 -0.68599,-3.28763 -0.52535,-0.96784 -1.51941,-2.02865 -2.94317,-3.19464 1.26498,-0.54598 2.21568,-1.16854 2.84121,-1.89896 0.62551,-0.7304 0.95891,-1.58842 1.01151,-2.58287 0.0701,-1.32588 -0.41541,-2.51315 -1.44776,-3.51822 -1.03237,-1.00503 -2.53522,-1.56826 -4.54479,-1.67454 z m -0.1184,0.96729 c 0.76653,0.0406 1.33605,0.36486 1.74207,0.93687 0.54227,0.74544 0.80386,1.7822 0.73266,3.12879 -0.0405,0.76658 -0.1925,1.44957 -0.41295,2.08193 -0.22044,0.63237 -0.52336,1.21207 -0.93399,1.70972 -1.55028,-1.13111 -2.59467,-2.1055 -3.09549,-2.94742 -0.50085,-0.84189 -0.70646,-1.64967 -0.66647,-2.40588 0.0394,-0.74579 0.30273,-1.37385 0.81613,-1.85056 0.51341,-0.47663 1.124,-0.69012 1.81804,-0.65345 z m -2.14589,10.95643 c 2.60719,1.96609 3.84601,3.96102 3.73974,5.97059 -0.051,0.96336 -0.33567,1.70897 -0.8829,2.23576 -0.54726,0.52681 -1.19984,0.77897 -1.956,0.739 -0.48686,-0.0257 -0.97517,-0.20284 -1.42079,-0.51725 -0.44564,-0.31442 -0.76225,-0.81723 -0.97608,-1.48815 -0.21384,-0.67091 -0.28895,-1.49185 -0.23745,-2.46557 0.04,-0.75618 0.15159,-1.46706 0.35402,-2.15233 0.20242,-0.68527 0.43172,-1.18704 0.65805,-1.53866 0.1473,-0.23108 0.38494,-0.51034 0.72141,-0.78339 z"
       id="path3137" />
    <g
       transform="matrix(1.0464663,-0.14595384,0.14729382,1.0560738,316.35249,364.66674)"
       style="font-size:30.02224731px;font-style:normal;font-variant:normal;font-weight:bold;font-stretch:normal;text-align:center;text-anchor:middle;fill:#ffffff;fill-opacity:1;stroke:none;font-family:Times New Roman;-inkscape-font-specification:Times New Roman Bold"
       id="text3399">
      <path
         inkscape:connector-curvature="0"
         d="m 161.625,736.3125 -0.59375,0.0625 c -0.016,0.51612 -0.13602,0.8972 -0.34375,1.15625 -0.20776,0.25909 -0.46497,0.40396 -0.78125,0.4375 -0.24713,0.0262 -0.83431,-0.0811 -1.78125,-0.34375 -1.63636,-0.45171 -3.14904,-0.6187 -4.5625,-0.46875 -1.91758,0.20348 -3.70768,0.89271 -5.3125,2.03125 -1.60483,1.13858 -2.8034,2.62658 -3.625,4.46875 -0.8216,1.8422 -1.14005,3.72101 -0.9375,5.65625 0.19211,1.8355 0.83164,3.53246 1.90625,5.0625 1.0746,1.53005 2.49364,2.62135 4.25,3.3125 1.75635,0.69116 3.69883,0.94633 5.84375,0.71875 1.63091,-0.17304 3.02262,-0.58679 4.1875,-1.25 1.16485,-0.66321 2.2474,-1.6621 3.25,-2.96875 l -0.15625,-1.75 c -1.02334,1.49041 -2.03705,2.57968 -3.03125,3.25 -0.99424,0.67033 -2.14106,1.05326 -3.40625,1.1875 -1.54198,0.16361 -2.82647,-0.0897 -3.875,-0.75 -1.04855,-0.66035 -1.88924,-1.71315 -2.5,-3.15625 -0.61078,-1.44309 -0.99749,-3.05945 -1.1875,-4.875 -0.19316,-1.84546 -0.0588,-3.55261 0.40625,-5.125 0.36113,-1.22848 1.02846,-2.25435 2,-3.09375 0.97152,-0.83936 2.08842,-1.33554 3.34375,-1.46875 1.50241,-0.15939 2.89904,0.17952 4.1875,1.03125 1.28843,0.85177 2.24796,2.17942 2.875,3.96875 l 0.5625,-0.0625 -0.71875,-7.03125 z m 15.53125,0.375 c -2.5096,0.007 -4.69368,0.85179 -6.5625,2.53125 -2.13581,1.91942 -3.26299,4.38057 -3.40625,7.40625 -0.12762,2.69508 0.52434,5.0849 2,7.125 1.86796,2.5814 4.64757,3.94799 8.28125,4.125 3.62372,0.17653 6.48478,-0.99183 8.59375,-3.5 1.5921,-1.89066 2.44008,-4.13388 2.5625,-6.71875 0.14323,-3.02568 -0.74119,-5.57576 -2.65625,-7.6875 -1.9151,-2.1117 -4.49639,-3.18226 -7.71875,-3.21875 -0.37159,-0.0332 -0.73524,-0.0635 -1.09375,-0.0625 z m 0.5625,1.03125 c 0.21843,-0.0192 0.45667,-0.0112 0.6875,0 1.00272,0.0489 1.8504,0.349 2.59375,0.9375 0.74332,0.58854 1.34817,1.57582 1.78125,2.9375 0.43304,1.36171 0.59635,3.39869 0.46875,6.09375 -0.10723,2.26426 -0.44689,4.08481 -1,5.46875 -0.55314,1.38395 -1.28349,2.37011 -2.1875,2.96875 -0.70877,0.46757 -1.57116,0.67482 -2.59375,0.625 -1.519,-0.074 -2.6799,-0.70296 -3.46875,-1.90625 -1.13248,-1.72213 -1.60212,-4.33596 -1.4375,-7.8125 0.13851,-2.92549 0.61041,-5.16275 1.46875,-6.6875 0.9215,-1.62457 2.15849,-2.49079 3.6875,-2.625 z m 16.21875,0.5 -0.0937,0.53125 c 0.83986,0.16127 1.40915,0.36298 1.6875,0.59375 0.27833,0.23081 0.42934,0.50647 0.5,0.8125 0.0706,0.30607 0.0113,1.03726 -0.21875,2.1875 l -1.96875,9.78125 c -0.33233,1.66149 -0.32948,3.03446 0,4.125 0.32948,1.09055 1.06827,2.07895 2.21875,2.96875 0.84289,0.65304 2.12898,1.14988 3.84375,1.5 2.05574,0.41974 3.76134,0.31979 5.125,-0.3125 1.36364,-0.63229 2.29714,-1.4268 2.8125,-2.40625 0.51533,-0.97945 0.99876,-2.65033 1.46875,-5 l 1.53125,-7.59375 c 0.16318,-0.81598 0.34165,-1.3675 0.53125,-1.65625 0.25607,-0.41841 0.58452,-0.72446 1,-0.875 0.41543,-0.15051 0.91338,-0.14462 1.46875,-0.0312 l 0.40625,0.0625 0.0937,-0.53125 -6.84375,-1.40625 -0.125,0.5625 c 0.79889,0.16314 1.41928,0.40313 1.8125,0.71875 0.25303,0.20517 0.42281,0.5163 0.53125,0.9375 0.1084,0.42123 0.0852,1.07412 -0.0937,1.96875 l -1.65625,8.15625 c -0.42477,2.12356 -0.89134,3.56502 -1.4375,4.34375 -0.54619,0.77873 -1.24136,1.32377 -2.09375,1.65625 -0.85244,0.33247 -1.83455,0.40632 -2.90625,0.1875 -0.93534,-0.19097 -1.6504,-0.55376 -2.1875,-1.0625 -0.53712,-0.50874 -0.87935,-1.084 -1.03125,-1.71875 -0.15191,-0.63475 -0.0767,-1.83571 0.28125,-3.625 l 1.96875,-9.78125 c 0.22811,-1.14041 0.44617,-1.86474 0.625,-2.125 0.1788,-0.26022 0.43013,-0.4277 0.75,-0.53125 0.31985,-0.10351 0.85529,-0.0634 1.625,0.0937 l 0.5,0.0937 0.125,-0.5625 -10.25,-2.0625 z m -64.6875,3.3125 -6.375,2.03125 0.15625,0.53125 c 1.06597,-0.35702 1.93504,-0.34926 2.5625,0.0625 0.45961,0.30707 0.85668,1.05069 1.21875,2.21875 l 2.59375,8.375 -13.25,-9.09375 -6.84375,2.1875 0.15625,0.53125 c 0.59407,-0.16623 1.07402,-0.22032 1.4375,-0.15625 0.36349,0.0641 0.8381,0.26783 1.40625,0.65625 l 0.5625,0.40625 4.25,13.75 c 0.32047,1.03404 0.34634,1.81258 0.0625,2.375 -0.28384,0.56242 -0.94054,1.03052 -2,1.375 l 0.15625,0.53125 6.84375,-2.15625 -0.15625,-0.53125 -0.46875,0.125 c -0.65454,0.20633 -1.30833,0.20133 -1.9375,-0.0312 -0.62918,-0.23257 -1.09029,-0.91104 -1.4375,-2.03125 l -3.84375,-12.375 18.0625,12.09375 0.5,-0.15625 -5.03125,-16.21875 c -0.28491,-0.91912 -0.41431,-1.57245 -0.375,-2 0.0393,-0.4275 0.17833,-0.77546 0.40625,-1.03125 0.22789,-0.25574 0.71683,-0.575 1.5,-0.9375 l -0.15625,-0.5313 z m 88.875,1.90625 -0.15625,0.5 c 0.57344,0.22891 0.96694,0.47774 1.21875,0.75 0.25179,0.2723 0.49738,0.75079 0.71875,1.40625 l 0.21875,0.65625 -4.8125,13.5625 c -0.362,1.01966 -0.81245,1.66168 -1.375,1.9375 -0.56255,0.27582 -1.38615,0.21367 -2.4375,-0.15625 l -0.1875,0.53125 6.75,2.4375 0.1875,-0.5 -0.4375,-0.1875 c -0.64565,-0.23372 -1.16807,-0.61919 -1.53125,-1.1875 -0.36319,-0.56831 -0.32967,-1.39537 0.0625,-2.5 l 4.34375,-12.21875 7.1875,20.65625 0.46875,0.15625 5.6875,-15.96875 c 0.32176,-0.90635 0.61943,-1.5267 0.90625,-1.84375 0.28676,-0.31703 0.60278,-0.52844 0.9375,-0.59375 0.33466,-0.0653 0.90839,7e-5 1.75,0.1875 l 0.1875,-0.5 -6.28125,-2.28125 -0.1875,0.5 c 1.06404,0.36388 1.71399,0.91483 1.96875,1.625 0.18335,0.52454 0.0652,1.34817 -0.34375,2.5 l -2.90625,8.28125 -5.15625,-15.3125 -6.78125,-2.4375 z m -114.46875,6.875 -15.28125,7.3125 0.21875,0.5 0.625,-0.28125 c 0.592464,-0.28392 1.101905,-0.37146 1.5625,-0.28125 0.323457,0.056 0.604626,0.22591 0.84375,0.5 0.134505,0.16879 0.419893,0.6664 0.8125,1.5 l 5.6875,12.125 c 0.435284,0.92423 0.652619,1.51646 0.65625,1.78125 0.01942,0.36831 -0.04511,0.66754 -0.21875,0.90625 -0.233542,0.34516 -0.626631,0.65242 -1.15625,0.90625 l -0.59375,0.28125 0.25,0.5 15.78125,-7.5625 -1.9375,-6.25 -0.5,0.25 c 0.31931,1.84611 0.15227,3.39754 -0.5,4.6875 -0.6523,1.28998 -1.85695,2.33884 -3.5625,3.15625 l -1.0625,0.53125 c -0.52065,0.24953 -0.94834,0.34563 -1.25,0.3125 -0.30168,-0.0331 -0.55804,-0.12684 -0.75,-0.3125 -0.19197,-0.18565 -0.52205,-0.79766 -1,-1.8125 l -2.4375,-5.1875 c 0.87073,-0.4173 1.58962,-0.60539 2.15625,-0.59375 0.56662,0.0117 1.18235,0.27638 1.84375,0.78125 0.66139,0.50489 1.30349,1.25056 1.90625,2.25 l 0.5,-0.25 -4.53125,-9.65625 -0.53125,0.25 c 0.53064,1.5005 0.70622,2.7353 0.53125,3.71875 -0.17498,0.98349 -0.84202,1.75753 -2,2.3125 l -0.34375,0.1875 -3.53125,-7.5 1.875,-0.90625 c 1.382397,-0.66252 2.35799,-1.04715 2.9375,-1.125 0.98978,-0.14116 1.84935,-0.0415 2.59375,0.3125 0.74439,0.35406 1.5811,1.13657 2.46875,2.34375 l 0.5,-0.25 -2.5625,-5.4375 z m 138.4375,2.21875 -2.53125,4.90625 0.5,0.25 c 0.89762,-1.2228 1.92207,-1.97017 3.0625,-2.28125 0.81398,-0.22411 1.7955,-0.0166 3,0.625 l 1.3125,0.6875 -7.28125,13.90625 c -0.4729,0.90476 -0.82327,1.43238 -1.03125,1.59375 -0.28951,0.23134 -0.58151,0.34133 -0.875,0.34375 -0.41387,0.0177 -0.85629,-0.0987 -1.375,-0.375 l -0.59375,-0.3125 -0.28125,0.5 9.375,4.96875 0.25,-0.5 -0.59375,-0.3125 c -0.50995,-0.27162 -0.85839,-0.57641 -1.0625,-0.90625 -0.20411,-0.32986 -0.3007,-0.62177 -0.28125,-0.90625 0.0194,-0.28448 0.26782,-0.89 0.75,-1.8125 L 251.71875,759 l 1.34375,0.6875 c 0.83521,0.4449 1.37434,0.84989 1.625,1.1875 0.44483,0.61117 0.69562,1.26258 0.78125,1.9375 0.0856,0.67494 -0.0363,1.62988 -0.34375,2.90625 l 0.5,0.25 2.53125,-4.875 -16.0625,-8.5625 z M 81.625,763.1875 c -0.557523,-0.006 -1.121668,0.0774 -1.6875,0.25 -1.131668,0.34528 -2.70998,1.20329 -4.75,2.5625 l -7.84375,5.21875 0.3125,0.46875 c 0.771237,-0.51384 1.343659,-0.79819 1.71875,-0.84375 0.375108,-0.0455 0.700649,0.0235 0.96875,0.1875 0.268116,0.16401 0.709797,0.70415 1.3125,1.625 L 78.875,783.6875 c 0.602709,0.92087 0.927289,1.53476 0.96875,1.84375 0.04146,0.309 -0.03683,0.63715 -0.21875,0.96875 -0.181923,0.3316 -0.657981,0.76187 -1.4375,1.28125 L 78.5,788.25 l 8.625,-5.75 -0.28125,-0.46875 c -0.771235,0.51386 -1.343658,0.79821 -1.71875,0.84375 -0.375107,0.0456 -0.700647,-0.0235 -0.96875,-0.1875 -0.268116,-0.16399 -0.709795,-0.70413 -1.3125,-1.625 l -3.125,-4.78125 1.09375,-0.71875 10.53125,4.125 5.3125,-3.53125 -0.3125,-0.46875 c -0.464264,0.27326 -0.958909,0.40799 -1.46875,0.375 -0.344463,-0.035 -1.012882,-0.2648 -2.03125,-0.65625 L 85,772.34375 c 0.85844,-0.94464 1.42375,-1.8497 1.65625,-2.75 0.358649,-1.41712 0.134369,-2.7755 -0.6875,-4.03125 -0.673947,-1.02967 -1.589081,-1.72556 -2.6875,-2.09375 -0.549214,-0.18407 -1.098727,-0.27552 -1.65625,-0.28125 z m 180.25,0.0937 -0.3125,0.46875 c 0.51726,0.39102 0.83279,0.80391 0.96875,1.28125 0.13594,0.47736 0.0825,1.70025 -0.15625,3.65625 l -1.21875,9.90625 -2.375,3.3125 c -0.59499,0.8281 -1.02149,1.30744 -1.25,1.4375 -0.31906,0.18767 -0.61535,0.25824 -0.90625,0.21875 -0.40417,-0.0357 -0.86089,-0.24032 -1.34375,-0.59375 l -0.84375,-0.625 -0.3125,0.46875 9.15625,6.71875 0.34375,-0.46875 -0.9375,-0.65625 c -0.43459,-0.3181 -0.69596,-0.65025 -0.84375,-1 -0.14783,-0.34976 -0.21642,-0.66569 -0.15625,-0.9375 0.0602,-0.27183 0.41876,-0.83505 1.03125,-1.6875 l 2.84375,-4 7.84375,-3.375 c 1.95993,-0.882 3.2901,-1.3598 3.9375,-1.40625 0.46469,-0.0315 0.97078,0.1159 1.5625,0.4375 L 279.25,776 l -5,-3.65625 -0.34375,0.4375 c 0.70315,0.57664 1.12218,1.06551 1.25,1.46875 0.1042,0.2993 0.095,0.56205 -0.0625,0.78125 -0.28585,0.39782 -1.23647,0.94325 -2.84375,1.625 l -6.53125,2.8125 0.96875,-7.625 c 0.20197,-1.64844 0.41499,-2.61397 0.625,-2.90625 0.11082,-0.15425 0.30545,-0.21914 0.59375,-0.21875 0.28827,4.2e-4 0.68141,0.15247 1.15625,0.5 l 0.34375,0.25 0.3125,-0.4375 -7.84375,-5.75 z M 78.3125,766 c 0.272199,-0.0146 0.529579,0.008 0.78125,0.0625 1.006682,0.21893 1.931973,0.95244 2.78125,2.25 0.586268,0.89577 0.900695,1.75631 0.9375,2.53125 0.0368,0.77497 -0.161273,1.43655 -0.59375,2.03125 -0.432485,0.59474 -1.222309,1.2945 -2.375,2.0625 l -0.71875,0.46875 -4.875,-7.46875 1.34375,-0.875 c 1.001352,-0.66717 1.902152,-1.01883 2.71875,-1.0625 z m -16,11.75 c -0.84168,-0.0192 -1.666336,0.15063 -2.46875,0.53125 -1.069881,0.50754 -2.521168,1.5748 -4.34375,3.21875 l -7,6.3125 0.375,0.4375 c 0.689036,-0.62149 1.197973,-0.99368 1.5625,-1.09375 0.36455,-0.10004 0.679907,-0.0917 0.96875,0.0312 0.288862,0.12298 0.802429,0.61471 1.53125,1.4375 l 8.75,9.875 c 0.728829,0.82281 1.133248,1.35659 1.21875,1.65625 0.0855,0.29966 0.06974,0.64523 -0.0625,1 -0.132248,0.35478 -0.553568,0.84057 -1.25,1.46875 l 0.375,0.40625 7.71875,-6.9375 -0.375,-0.4375 c -0.689031,0.62151 -1.197968,0.9937 -1.5625,1.09375 -0.364544,0.10006 -0.711153,0.0917 -1,-0.0312 -0.288858,-0.12296 -0.802425,-0.58344 -1.53125,-1.40625 l -3.78125,-4.28125 1,-0.875 11,2.53125 4.75,-4.28125 L 77.8125,788 c -0.419971,0.33845 -0.865855,0.52041 -1.375,0.5625 -0.34582,0.0159 -1.061158,-0.0745 -2.125,-0.3125 l -8.1875,-1.90625 c 0.713295,-1.06053 1.118328,-2.04385 1.21875,-2.96875 0.15083,-1.45477 -0.256147,-2.75297 -1.25,-3.875 -0.814968,-0.92002 -1.797811,-1.48421 -2.9375,-1.6875 -0.284923,-0.0508 -0.56319,-0.0561 -0.84375,-0.0625 z M 58.96875,781 c 0.131014,-0.009 0.27782,-0.009 0.40625,0 1.027447,0.069 2.035513,0.68436 3.0625,1.84375 0.708951,0.80039 1.133287,1.58238 1.28125,2.34375 0.147958,0.76141 0.061,1.44191 -0.28125,2.09375 -0.342257,0.65187 -1.03267,1.4461 -2.0625,2.375 L 60.75,790.25 54.84375,783.5625 56.03125,782.5 c 1.043726,-0.94142 2.020399,-1.43515 2.9375,-1.5 z m 212.3125,10.28125 c -0.70159,0.0416 -1.25189,0.31773 -1.6875,0.8125 -0.40921,0.46478 -0.6138,0.99027 -0.59375,1.625 0.0197,0.63474 0.24903,1.1693 0.6875,1.5625 0.31956,0.28656 0.64102,0.46542 0.96875,0.53125 0.13538,0.0275 0.23663,0.0538 0.28125,0.0937 0.052,0.0466 0.0637,0.11211 0.0625,0.21875 -0.007,0.11412 -0.0753,0.24756 -0.1875,0.375 -0.54782,0.62221 -1.27263,1.0664 -2.1875,1.3125 -0.91488,0.24609 -1.96418,0.14823 -3.15625,-0.25 l -0.4375,0.5 c 1.60659,0.74311 3.0933,1.00564 4.46875,0.75 1.37546,-0.25565 2.55618,-0.92801 3.5,-2 0.76561,-0.8696 1.13906,-1.7512 1.125,-2.65625 -0.0144,-0.90504 -0.36089,-1.64562 -1,-2.21875 -0.52766,-0.47317 -1.14216,-0.69786 -1.84375,-0.65625 z m 22.9375,3.875 c -2.43126,-0.0225 -4.66183,0.81384 -6.6875,2.5 -2.06209,1.71648 -3.3409,3.8078 -3.84375,6.28125 -0.63576,3.1303 0.1844,6.10497 2.5,8.9375 2.30924,2.82478 5.08529,4.20496 8.34375,4.09375 2.45781,-0.0821 4.67846,-0.94748 6.65625,-2.59375 2.31503,-1.92706 3.61532,-4.33776 3.875,-7.1875 0.25963,-2.84975 -0.67067,-5.47534 -2.8125,-7.90625 -1.80605,-2.39831 -4.15523,-3.75786 -7,-4.0625 -0.3556,-0.0381 -0.68393,-0.0593 -1.03125,-0.0625 z m 4,3.25 c 1.38512,0.0102 2.52365,0.54539 3.40625,1.625 0.63898,0.78166 0.9938,1.64301 1.0625,2.59375 0.0687,0.95074 -0.26173,2.04243 -0.96875,3.28125 -0.70706,1.23881 -2.09418,2.72102 -4.15625,4.4375 -1.73247,1.44209 -3.30047,2.42018 -4.6875,2.9375 -1.38706,0.5173 -2.57766,0.64765 -3.625,0.375 -0.81985,-0.21496 -1.5671,-0.73413 -2.21875,-1.53125 -0.968,-1.1841 -1.28895,-2.47699 -0.9375,-3.875 0.50064,-2.00342 2.08998,-4.09831 4.75,-6.3125 2.23838,-1.86324 4.21056,-2.99096 5.90625,-3.375 0.51754,-0.11542 1.00704,-0.15965 1.46875,-0.15625 z m -259.46875,0.0625 -0.1875,0.21875 7.78125,16.03125 c 0.744683,1.52727 1.139761,2.63245 1.21875,3.3125 0.07899,0.68005 -0.05708,1.33574 -0.4375,1.96875 l 0.4375,0.375 4.28125,-5.21875 -0.40625,-0.34375 c -0.735467,0.76517 -1.268544,1.17605 -1.5625,1.28125 -0.498839,0.18091 -0.970971,0.0849 -1.40625,-0.28125 -0.328371,-0.27623 -0.642877,-0.73531 -0.96875,-1.375 l -0.96875,-1.90625 4.5625,-5.53125 2.625,0.78125 c 0.682139,0.20831 1.074791,0.3326 1.15625,0.375 0.183258,0.0758 0.331285,0.16563 0.46875,0.28125 0.229087,0.19273 0.330268,0.4465 0.3125,0.71875 -0.03559,0.38785 -0.27866,0.86019 -0.78125,1.46875 l -0.28125,0.3125 0.4375,0.375 6.25,-7.59375 L 60.875,803.375 c -0.432639,0.44551 -0.890723,0.68725 -1.34375,0.75 -0.599398,0.0833 -1.723101,-0.11797 -3.375,-0.59375 L 38.75,798.46875 z m 3.90625,6.03125 7.28125,2.15625 -3.90625,4.75 -3.375,-6.90625 z m -13.28125,6 -2.625,4.59375 0.5,0.28125 c 0.406708,-0.6779 0.784151,-1.09192 1.125,-1.21875 0.340856,-0.12677 0.677392,-0.0791 1.03125,0.125 0.241663,0.13945 0.473374,0.32856 0.71875,0.5625 0.245379,0.234 0.677022,0.7159 1.28125,1.46875 l 5.875,7.25 -10.125,-1.59375 C 25.915993,821.77308 25.198514,821.61455 25,821.5 c -0.181238,-0.10454 -0.322993,-0.25083 -0.40625,-0.4375 -0.08325,-0.18662 -0.105596,-0.37601 -0.0625,-0.59375 0.06159,-0.31099 0.262241,-0.76918 0.59375,-1.375 l -0.46875,-0.28125 -4.875,8.59375 0.5,0.28125 c 0.31058,-0.54855 0.599325,-0.92663 0.90625,-1.125 0.306947,-0.19833 0.692105,-0.3227 1.15625,-0.34375 0.464164,-0.021 1.317316,0.063 2.5625,0.25 l 2.28125,0.34375 5.09375,6.625 -10.5,-1.4375 c -1.303124,-0.18575 -2.109519,-0.37328 -2.4375,-0.5625 -0.250279,-0.14438 -0.385031,-0.35452 -0.4375,-0.65625 -0.05244,-0.3017 0.07352,-0.77805 0.40625,-1.40625 l -0.46875,-0.28125 -4.375,7.6875 0.5,0.28125 c 0.367299,-0.52739 0.752338,-0.81416 1.1875,-0.875 0.435192,-0.0608 1.567213,0.0106 3.34375,0.25 l 17.625,2.4375 0.25,-0.46875 -8.5625,-11.375 13.78125,2.15625 0.3125,-0.53125 L 31.5625,814.75 c -0.953206,-1.2083 -1.488506,-1.85672 -1.5625,-1.96875 -0.220743,-0.35834 -0.347817,-0.68395 -0.375,-1 -0.02718,-0.31598 0.05732,-0.65414 0.21875,-1 L 29.375,810.5 z m 282.40625,1.46875 -0.46875,0.28125 0.34375,0.59375 c 0.28801,0.49249 0.43523,0.92371 0.4375,1.3125 0.002,0.3888 -0.0831,0.70999 -0.25,0.9375 -0.16697,0.22752 -0.70362,0.59511 -1.59375,1.125 l -11.4375,6.8125 c -0.87304,0.5197 -1.45775,0.8165 -1.71875,0.84375 -0.36176,0.0523 -0.65505,-0.003 -0.90625,-0.15625 -0.36165,-0.20405 -0.70187,-0.58399 -1,-1.09375 l -0.34375,-0.5625 -0.46875,0.28125 5.375,9.1875 0.46875,-0.28125 -0.34375,-0.59375 c -0.28804,-0.49249 -0.40398,-0.92371 -0.40625,-1.3125 -0.002,-0.3888 0.0543,-0.70567 0.21875,-0.9375 0.16442,-0.23184 0.7036,-0.59511 1.59375,-1.125 l 5.375,-3.21875 3.65625,6.1875 -5.40625,3.21875 c -0.87304,0.51969 -1.4265,0.78524 -1.6875,0.8125 -0.36681,0.0436 -0.6863,-0.003 -0.9375,-0.15625 -0.35661,-0.19542 -0.69682,-0.54411 -1,-1.0625 l -0.3125,-0.5625 -0.5,0.28125 5.375,9.15625 0.46875,-0.28125 -0.3125,-0.5625 c -0.28803,-0.4925 -0.43308,-0.95064 -0.4375,-1.34375 -0.005,-0.39314 0.0518,-0.67875 0.21875,-0.90625 0.16695,-0.22753 0.70359,-0.62637 1.59375,-1.15625 l 11.46875,-6.8125 c 0.87301,-0.51971 1.42646,-0.78526 1.6875,-0.8125 0.36677,-0.0436 0.68627,0.003 0.9375,0.15625 0.35657,0.1954 0.66554,0.54409 0.96875,1.0625 l 0.34375,0.59375 0.46875,-0.28125 -5.34375,-9.1875 -0.5,0.28125 0.34375,0.5625 c 0.28801,0.49248 0.43308,0.95062 0.4375,1.34375 0.005,0.39311 -0.0831,0.70998 -0.25,0.9375 -0.16698,0.22751 -0.67238,0.5951 -1.5625,1.125 l -4.9375,2.9375 -3.625,-6.21875 4.90625,-2.9375 c 0.87301,-0.5197 1.45772,-0.78525 1.71875,-0.8125 0.36678,-0.0436 0.65503,0.003 0.90625,0.15625 0.36163,0.20405 0.70185,0.58399 1,1.09375 l 0.34375,0.5625 0.46875,-0.28125 -5.375,-9.1875 z m 12.78125,22.96875 -0.5,0.21875 0.28125,0.625 c 0.22885,0.52314 0.29276,0.95738 0.25,1.34375 -0.0428,0.38638 -0.15153,0.70007 -0.34375,0.90625 -0.19226,0.20618 -0.7419,0.51661 -1.6875,0.9375 L 310.375,844.375 c -0.92743,0.4128 -1.51887,0.62883 -1.78125,0.625 -0.36536,0.009 -0.67457,-0.0993 -0.90625,-0.28125 -0.33548,-0.24541 -0.60688,-0.61476 -0.84375,-1.15625 l -0.28125,-0.625 -0.5,0.21875 4.28125,9.75 0.5,-0.21875 -0.28125,-0.625 c -0.22885,-0.52314 -0.32401,-0.95739 -0.28125,-1.34375 0.0428,-0.38638 0.18475,-0.69549 0.375,-0.90625 0.19023,-0.21078 0.74188,-0.51661 1.6875,-0.9375 L 324.5,843.4375 c 0.92741,-0.4128 1.5501,-0.59758 1.8125,-0.59375 0.36935,7e-5 0.6433,0.0993 0.875,0.28125 0.33544,0.24541 0.63812,0.61476 0.875,1.15625 l 0.25,0.625 0.53125,-0.21875 -4.28125,-9.75 z m -0.375,16.125 c -1.02608,0.0141 -2.08018,0.19843 -3.15625,0.53125 -2.55599,0.79054 -4.53601,2.22122 -5.9375,4.3125 -1.77309,2.64688 -2.13003,5.73993 -1.0625,9.25 1.06461,3.50046 3.13368,5.81475 6.1875,6.96875 2.30277,0.87212 4.67353,0.94569 7.125,0.1875 2.86953,-0.88754 4.96201,-2.62352 6.28125,-5.15625 1.3192,-2.53275 1.43402,-5.33426 0.375,-8.40625 -0.76102,-2.91237 -2.39227,-5.05886 -4.90625,-6.4375 -1.57126,-0.86165 -3.19612,-1.27357 -4.90625,-1.25 z m 3.625,4.8125 c 0.49454,0.002 0.97807,0.0502 1.40625,0.125 2.08825,0.37189 3.39496,1.43494 3.9375,3.21875 0.29462,0.96861 0.29652,1.90761 0,2.8125 -0.29658,0.90488 -1.00237,1.78439 -2.125,2.65625 -1.12267,0.87183 -2.97528,1.70945 -5.53125,2.5 -2.14742,0.66415 -3.95959,0.96326 -5.4375,0.90625 -1.47793,-0.057 -2.63521,-0.40665 -3.5,-1.0625 -0.67634,-0.51481 -1.16832,-1.26221 -1.46875,-2.25 -0.44626,-1.46733 -0.26054,-2.78143 0.59375,-3.9375 1.22144,-1.65787 3.48412,-3.01149 6.78125,-4.03125 2.08088,-0.6436 3.86013,-0.94489 5.34375,-0.9375 z"
         transform="matrix(0.98290089,0.02608008,-0.02631952,0.97395918,-43.977858,-790.58925)"
         id="path3077-1"
         style="fill:#ffffff" />
    </g>
    <path
       sodipodi:type="star"
       style="opacity:0.98999999;color:#000000;fill:#ffffff;fill-opacity:1;fill-rule:nonzero;stroke:none;stroke-width:3.5;marker:none;visibility:visible;display:inline;overflow:visible;enable-background:accumulate"
       id="path3146"
       sodipodi:sides="5"
       sodipodi:cx="48.885021"
       sodipodi:cy="279.47589"
       sodipodi:r1="16.377851"
       sodipodi:r2="6.2235842"
       sodipodi:arg1="0.7631796"
       sodipodi:arg2="1.3914981"
       inkscape:flatsided="false"
       inkscape:rounded="-8.6736174e-017"
       inkscape:randomized="0"
       d="m 60.720342,290.79663 -10.725412,-5.19692 -8.219259,8.63054 1.628237,-11.80641 -10.748028,-5.14999 11.731719,-2.09984 1.576612,-11.81342 5.622363,10.50864 11.722428,-2.1511 -8.256907,8.59454 z"
       transform="matrix(0.99026677,-0.13918236,0.13918236,0.99026677,196.37211,263.19614)"
       inkscape:transform-center-x="1.5409412"
       inkscape:transform-center-y="0.024168666" />
    <path
       inkscape:transform-center-y="0.024168666"
       inkscape:transform-center-x="-1.5409411"
       transform="matrix(-0.99026677,-0.13918236,-0.13918236,0.99026677,673.70514,263.19614)"
       d="m 60.720342,290.79663 -10.725412,-5.19692 -8.219259,8.63054 1.628237,-11.80641 -10.748028,-5.14999 11.731719,-2.09984 1.576612,-11.81342 5.622363,10.50864 11.722428,-2.1511 -8.256907,8.59454 z"
       inkscape:randomized="0"
       inkscape:rounded="-8.6736174e-017"
       inkscape:flatsided="false"
       sodipodi:arg2="1.3914981"
       sodipodi:arg1="0.7631796"
       sodipodi:r2="6.2235842"
       sodipodi:r1="16.377851"
       sodipodi:cy="279.47589"
       sodipodi:cx="48.885021"
       sodipodi:sides="5"
       id="path3148"
       style="opacity:0.98999999;color:#000000;fill:#ffffff;fill-opacity:1;fill-rule:nonzero;stroke:none;stroke-width:3.5;marker:none;visibility:visible;display:inline;overflow:visible;enable-background:accumulate"
       sodipodi:type="star" />
  </g>
</svg>
